<?xml version="1.0" encoding="UTF-8"?>
<svg id="_圖層_2" xmlns="http://www.w3.org/2000/svg" version="1.1" viewBox="0 0 396.9 396.9">
  <!-- Generator: Adobe Illustrator 29.7.0, SVG Export Plug-In . SVG Version: 2.1.1 Build 138)  -->
  <defs>
    <style>
      .st0 {
        fill: none;
        stroke: #000;
        stroke-miterlimit: 10;
      }
    </style>
  </defs>
  <g id="_圖層_1-2">
    <g id="_圖層_2-2">
      <path d="M39.4,159.8l-8.4,3.7-.5,2.7h-12.9v-1.9c0,0-2.5-.6-2.5-.6l1.5-6.4c32.9,4.5,40.6-41.7,8-48.1l-.6-4.6,1.5-.5v-7.6h-6.5l.5-29.7h3v-3h2.7l.3,3h2.5v12.4h21.3c-.8,7,1.4,15.2.5,22.1-.2,1.8-2.4,1.8-1.5,4.7h4v16.8h8.9v-24.5c0-1.2-2.2-6.8-1.9-7.9l2.4-1.5v-7.7h4l.5-5.2,7.9-.2v12.4h4c-.3,2.7.4,6.1,0,8.7-.1,1-1.2.5-1.1,1.4,0,.8.8,1.4.9,2.2,1,5.2,1.4,10.1-1.3,14.8-1.8,3.2-4.6,4.2-3.5,8.6h3l.5,23.8h4.7s.3,1.4.3,1.4h3.4c0,2.8,2.1,2,4,2v4.5l5.9.3v4.2h-4v3.5c-2-.3-4.8.4-6.7,0-1.2-.2-1-1.4-1.6-1.5-2.1-.5-6.2.4-8.6,0v11.4h5.4l-.2,6-4.7.7v3.7h5v6.9h-4.9v13.4h5v6.4h-5v3.2l5,.3v5.9h-5.9v24.5c0,.1.7.7.5,1.2h-8.9c-.2,0,.2,1.7-2.5,1v-5h-6.4v5l-13.9-.5v-9.4h-3.5v-14.3h-9.4v2.4c0,0-1.5.3-1.5.3v2.7s-10.1,0-10.1,0c-.4-2-1-4-.3-5.9h-5c.6-3.3-.5-7.1-.5-10.1s1.1-6.2.5-9.2h4.5v-3h12.4v3h9.4v-11.4h-9.2l-.8,2.5c-1.9-.2-4.8.4-6.6,0-.4,0-.2-1.1-1.1-1-1.3,0-2.2,1.4-3.7,1.1v-3h-5v-18.8h5v-3h12.4v3h9.4v-11.9h0ZM67.6,157.3h-15.3v5.4c.8-.1,3.3-.1,3,1.2l-2.9,1.6v6.1c0,0,14.8,0,14.8,0v-5.9c0,0-3-1.3-3-1.3l3-.7.5-6.4h0ZM52.3,202.8h15.3v-5.9c-1.6.2-3.7,0-2.7-2h2.7v-6.4l-15.3.5.2,5c.5.7,2.8.1,2.8,1.7l-2.9.8v6.4s0,0,0,0ZM67.6,219.7h-13.4v7.4c1.8,0,3.8-.5,4.9,1.2-.7,1.5-4.6.4-4.9.7v5.4h13.4v-5.4c-3.9.4-4-2.4,0-2,0,0,0-7.4,0-7.4Z"/>
      <path d="M104.2,310.2l.8-1.4c1.4-.4,13.4,9.4,15.5,10.7l-2.8,6.4,2.8,2.5-.9,4.1c-.8.7-7.1-3.1-6.3,1.6.4,2.3,5.3,3.8,0,7,2.4,3.3,6.4,4.1,9.7,6.1.4.2.8-.1.6.8l-10.2,8.1-14-16.6v-.9s1.5-1,1.5-1c-.3-2.3-3.3-2.8-2.8-5.2,1-4.4,4.5-1.3,4.7-1.5l2.8-6-14.6-10.2,9.1-9.6c.7,0,1.7,6,4.1,4.9h0Z"/>
      <path d="M47.2,290.1c8.9-.9,15.6,7,12.1,15.5-1.8,4.3-10.2,12.6-14.6,14.1-3,1-8.8.6-11.6-1-1.3-.7-5-6-5.4-7.5-2.3-10.1,10.3-20.3,19.5-21.2h0Z"/>
      <polygon points="58.2 280.1 43.4 280.1 43.3 281.5 41.4 281.5 41.4 273.6 44.4 273.6 44.4 258.3 41.4 258.3 41.4 251.3 57.5 251.3 58.2 252.1 58.2 280.1"/>
      <path d="M206.8,103c.4-.4,1.5-.5,2.1-1.1.9-.9,3.5-4,4.4-4,.4,0,.7.3,1,.5.5.2,5.3,4.2,5.4,4.5.4.8-.8,3.9-.6,5.1.4,2.9,9.3,9,11.2,12l-11.1,12.6-10.6-10.7,6.4-7.4-2.8-2.6c-.7-.1-1.4.8-2,.9-1.1.2-6.7-4.3-6.5-5.1,1.6-.9,2.3-3.8,3.1-4.6h0Z"/>
      <path d="M181.9,264.7l-.7,4.4c-.7,1-2.9.3-4,0l-.8,2.4h-4.9l-.8-3.5-5.6-.5v4l-4.4.5v-3l-5.9,1,.5,3.5-6.7,1.5-.8-3-4.9,1.5.8,3-3.6,1.9-.9-.4-.7-2-3.7,2-2.6-4.2c13.7-10.1,33.4-14.1,49.8-9.1h0Z"/>
      <path d="M172.1,365.2c-.2.1-1.5,3.1-2,3.6-.6.6-2.2.8-2.8,1.8l-4.9-2.9.8-2c-3.9-2.1-8.2-3.9-4-8.4l-4.5-1c.4-4.7,1.6-5.6,5.8-7.3l3.9,1.9,2.4-2c1.1.2,1.8,1.5,2.7,1.8.5.2,1.2-.2,1.7-.1,1.5.3,1.2,1.7,2,2.4s4.3,2.9,4.4,3.6l-1.9,3,1.2,2.1c-.9.7-1.9,3.3-2.7,3.8-.7.3-1.6-.4-1.9-.2h0Z"/>
      <path d="M266.4,191.6c.1,0,0,.7.5.8.9.3,2.3-.1,3.3.5l1-1c1.3,1.3,1.1,2.8.7,4.4-1,.6-3-1-3.2-1-.4,0-.6,1.2-.8,1.4-.9.5-17.7.3-19.9,0-7.6-.8-16.4-4.9-24.2-6-1.1-.3-.6-1.6-1-2.3-.3-.5-2.9-1.3-3.3-2.4,2.6-4.5,4.3-1.2,7.5,0,6.7,2.3,16.9,4.9,23.9,5.3,3,.2,13.8-.6,15.5.1h0Z"/>
      <path d="M111.6,207.9c.2,0,0,1,1.8.8l7.6,13.2-2.4,2.4c3.9,2.2,5.5,6.7,7.9,10.4-10.1,9.8-11.1-4-15.8-10.5l1.9-1.9c-.7-1.6-2-1.6-2.9-2.5-1.2-1.2-4.7-7.3-3.6-8.9.4-.6,4.8-3.4,5.4-3.1h0Z"/>
      <path d="M188.3,285.6c.3.3,0,1.3,0,1.4.2.2,2-.5,3-.3.9.2,6.6,3.2,7.6,3.8.7.5.9,1.4,1.3,1.7.5.3,1.2-.2,1.9,0,2.2.7,5.6,5.3,8,6.4,1.3,1.2-.7,4.4-1.8,5.2-.8.6-.3.5-1,0-1.6-1.1-2.4-3.8-3.7,0h-.7c-2.7-2.3-4.8-1.7-2.5-5.4l-5.5-3.9-1.6,2.5-4.1-1.5,1-2.7c-1.6-1.7-3.8-2.5-6.1-2.7l-1.6,2.9-3.6-1,.2-2.9-4.2-1,.6-3.9c1.1.3,1.5-1,1.8-1,1.3-.3,10.2,1.7,10.9,2.6h0Z"/>
      <path d="M148.2,290c1.8,2.9.1,5.5.6,8.8l3.9.3,3.5-6.7h2.7c0,0,.5,1,.5,1l-3.7,6.7,7.9,2.5c0,.8.3,3.3-.7,3.5-1.4-.2-6.7-2.1-7.5-.9l-.7,7.9-4-1.5.5-6.9-4.7-1.4c-1.4.5-3.9,7-4.3,7.2s-1.5.1-2-.1c-1.6-1.1,2.2-6.8,2-8.7-1.7,0-6.4-.6-6.9-2.3-1.1-4.3,8-.9,8.9-1.7.6-1.6.2-4.2.5-5.6.1-.4.9-.5,1.2-.9.7-.8-.3-2,2.2-1.3h0Z"/>
      <path d="M226.3,281.2c.5.4,3.2,8.4,3.5,9.7,1.2,4.8,1.2,10.2,1.7,15.2.2,2.2,2.2,11.3.8,12.5l-2.7.6-1-.5-.8-3.4c-4.6,1.1-5.3-5.3-1-5.6v-6.9c-4.6,1-6.6-5.3-.9-5-1.2-1.3,0-2.8,0-3.7,0-.2-2.5-1.6-2-3.3-1.6,1.1-4.1,0-4.3-1.7,0-.2.5-.6.5-1,.3-1.4-.7-1.4,2.3-1.7l-1.3-4.5c1.2-1.1,3.8-2,5.1-.9h0Z"/>
      <path d="M119.5,44c3.1,7.1,8.1,15.1,8.9,23,.7,7.1-1.2,14.4-1.9,21.5l-2.5-.5.5-1.5-1.8-.5c-.6-.8,0-2.7-.2-3.7-.1-.5-1.2-.5-1.4-1.1-.4-1.1,0-2.9,0-4.2h1.9s.6-8.1.6-8.1c-2.2-.1-3.3-4.3-1-5.1-.4-1.7-.7-3.4-1.3-5.1-.8-2.2-1.5-4.4-3.7-2.5,0-1-.9-2-.9-2.9-.1-1.1.8-1.5.9-2.3,0-1.2-1.3-2.8-1.5-4-.2-.3,0-.4.2-.6.1-.3,1.6,0,.4-2.1l2.9-.4h0Z"/>
      <path d="M126.5,116.2c-.5-2.1,1.4-1.6,1.9-2.1.2-.3,0-1.1.1-1.3.3-.3,3.2,0,4.1,0,2.8-.3,5.6-.7,8.9-.4,2,.2,4.1.4,5.3,2.2-2.3,2.5-4.6,1.1-7.4,1.2l.5,11.4,2.5.2.5,2.8h-2.5v7.9l2.5.3v3.2h-2.5v9.4h-2s0,1.5,0,1.5c-1.2.5-2-.8-2-1.7v-9.2h-2c0-.4,0-.8,0-1.2.1-2.4,2-1.6,2-1.7v-8.4h-2v-3.2s1.5-.5,1.5-.5c.2-2.3-.4-5.2,0-7.4.1-.9,1.7-.9,1-2.7h-10.4Z"/>
      <path d="M183.9,157.8c.1,1.5-1.9,1.3-2.1,1.8l.5,13.6h-3.5c1.2-2.2-2-3.2-2-4.2,0-.9.5-1.9.6-3,0-3.1-.6-8.6.8-11.1s6.9-9.5,9.6-10.7c.5-.2.9.6,1.2.6.6,0,1.7-1.8,2.7-1.1,1.9,2.1,3.3,4.2,2.1,7.1-.4,1-7,7.4-8,7.8-.6.3-1.2-1-1.9-.7h0Z"/>
      <path d="M156.2,89c-.5.6-2.1-.1-1,3h-2.9s-8-17.5-8-17.5c-2.1-.2-1.2-2.1-3-3.5l1.5-.8c-2-2.6-.1-2.3,0-2.8.3-1.4-.1-3.6,0-5.3.3-2.2,2.2-8.8,3.7-10.2.5-.5,2,.2,2.5-1,1.3.7.2,1.7.5,2.5.1.4,1,.7,1.1,1.2.1,1.1-5.2,11.3-3.2,14.2l8.8,20.1h0Z"/>
      <path d="M106.9,275.9c.2.2,1.1.2,1.8,1,4.1,4.6-1,6.1-4.2,8.6-1-1.6-2.9-2.5-3.7-4.3-1.7-4,0-2.4-3.5-5.9-1.4-1.4-1.4-5.3-3.2-7.1-.5-.5-1.2.2-2-.4-1-.9-1.5-3.3-2.7-4.2l7.4-4.5c.2.1,2.6,3.4,2.7,3.8.3,1-.3,1.7.1,2.8.8,2.2,2.3,2.2,3.5,3.4,1.3,1.3,1.6,4.6,3.7,7h0Z"/>
      <path d="M108.2,242.4l1.4-.5c1.2,1.6,1.2,3.5,2,5.2.9,2,2.8,2.5,3.9,4,3.5,4.8-.9,5.6-4.6,7.6-.9-1.5-2.9-2.3-3.5-4-.6-1.6.1-3.1-1.7-5.1-.4-.4-1.1-.2-1.5-.7-1.4-1.4-1.4-5.4-3.4-7.3-.6-.6-1.4-.1-1.9-.4-.4-.2-1.9-3.5-2.6-4.1l7.4-4.7c0,1.4,2.8,3.9,2.9,4.8,0,.6-.8,1.1-.8,1.4,0,.4,2.8,2.4,2.4,3.7h0Z"/>
      <path d="M216.9,177.3c.6,1.2.3,2.6,1.6,3.6l-2.8,2.2c-1.4.4-2.8-2.3-3.4-3.4-4.4-8.3-2.9-17-8.4-25.2-1.1-1.6-4.4-4.8-4.9-6-.2-.5,1.3-1.3-.1-2.3l.7-1.2c1.3,1.1,2.6.3,3.7,1.2,2.8,2.1,8.2,11.1,9.2,14.5,1.3,4.4,1.2,11.3,3.1,15.3.4,1,1.3,1.2,1.4,1.3h0Z"/>
      <path d="M180.9,124.7c0,0,0,1.3,1,2.2.7.8,3.1,2.5,4.1,3.3,2.4,1.8,3.4.7,2.8,5.3-4.6-.1-6.1,5.8-10.6,6.9l-1.2-6.2-10.9-.7c-1.4-7.9,6.1-3.9,10.9-5.2l.5-6.7c1.1-.3,1.3,1,2,1.3.6.3,1.4-.3,1.4-.3h0Z"/>
      <path d="M233.6,320.9c.6.3,1.1,0,1.4.8.9,1.8,2.2,6.5,3,8.7.2.6.4,1.6.7,2.4.5,1.6,3.4,9.6,2.9,10.4-3.3,1.9-4.9,2.7-5.4-1.9l-2.7,1c-2.5-2.2-2.8-4.2.6-5.7l-2.4-6.6-3.4,1c-.1-1.7-1.8-2.1-.9-4.4l2.4-.9-.3-4.2c.3-.5,3-1.4,3.5-1.4.2,0,.2.6.4.7h0Z"/>
      <path d="M162.6,97.9l14.1,20.8.2,1.4c-1.9,1.7-3.3,1-5.4,1.8l-10.6-14.2c.4-3.5-.7-5-2.2-7.9l3.9-2h0Z"/>
      <path d="M103.5,99.4c-.5,0-2.4-.9-2.2-1.7.2-.7,1.7-.6,2.3-.9.2,0,.2-.7.5-.8,2.1-.5,5.7.5,7.7,0,.4,0,2.3-3.8,2.3,0h2.4c-.7,2.6,2,2.2,2.5,4.3l-2.5.2v3.5h9.9s0,2.4,0,2.4l1.9.8-2,1.6v5.1s-3.4,0-3.4,0v-6.4c-1.4,0-2.8-.2-4.2,0-.8,0-1.4,1-2,1-.3,0-3.6-1.4-4.2-1.7v-7.2c-2.8-.3-6.5.5-9.2,0h0Z"/>
      <path d="M174.2,391.7l-9.9-7.2c-.4-.7,2.2-3.9,2.8-4.2,1-.5,16.7,10.1,19.1,11.2.5.9-2.5,5.4-3.5,5.4-1.6,0-6.5-4.6-8.5-5.1Z"/>
      <path d="M257.1,178.1c-1.5-.2-3.3.3-4.7,0-2.7-.5-17.4-18-21.1-20.5l-.5-5.2,26.2,25.7h0Z"/>
      <path d="M93.4,54.4l1.3,2.5-4.5,3.4-3.2-3.3,2.8-3.4-1.8-3,2-1.1v-5.1s5.6,0,5.6,0c1.4,2.2-1.3,4-.1,5.9h5.9v4h-7.9,0Z"/>
      <path d="M30.4,10c.1,0,.1.8.4.9.8.1,2.1-.8,3.2-.5v5.4h-4.1s-1.3,2.5-1.3,2.5l-2.2-1.5-3.5,2.9-3.1-2.7,3.9-4-4.9-5.5c.5-1.2,1.8-3.2,3.2-2.2s4.1,4.8,5.2,5.3c.5.2,1.9-1.5,3.3-.6h0Z"/>
      <path d="M92.9,35.6v4h-5.4c-.3.9.8,1.2.9,1.8,0,.4-1.7,3.2-.9,4.6h-5c-.4-2,.3-3.2,1-4.9-2.6.4-3.8-.3-4-3l1.5-.2-2.9-3,3.1-3.2c.8,1.8,2.9,1.5,3.3,1.7.6.4.7,1.8,1.8,2.1,1.2.4,6.3-.2,6.6,0h0Z"/>
      <path d="M13.7,24.8v4.4h-4c.7-2.7-1.1-3.3-1-5.4l3-.7c-.8-1.2-1.7,0-2.7-.7-.3-.2-3.8-3.4-4.2-3.8-1.2-1.2,1.1-2.7,2.1-3.2l4,3.9c1.1-.7,3.4-4.4,4.7-3.7.3.1,3.9,3.7,3.9,4-2.1,2.3-2.2,5.1-5.8,5.3h0Z"/>
      <path d="M50.3,6.9l-.5-2c.4,0,.8,0,1.2,0,.4.1,6.8,5.4,7,5.9.8,1.7.1,3.9-.8,5.4l-1.4-.2c-1.7-2.6-6.1-5-7.7-7.2-.9-1.2,0-2.2-1.4-3l-2.1,1.9c-2.6-1-3-2.9-1.7-5.2,3.1.8,2.9-.8,4.7-2.6l2.7,2.3-1.9,2.9,2,1.7h0Z"/>
      <path d="M111.7,129.6v7.7l-.8.7c-2.5-.1-6.1.8-8.1-.7v-7.7h8.9Z"/>
      <path d="M79,286h-5.9v-8.9c1.9,0,4.3,0,5.9,1.2v7.7Z"/>
      <polygon points="80 266.7 79.5 276.6 74.5 276.6 75.1 266.7 80 266.7"/>
      <path d="M117.6,206.3l-2.9.8c-.6-1.5-5-7.5-4.4-8.6l2.9-.9c.7,1.3,5.1,7.7,4.4,8.6h0Z"/>
      <path d="M74.4,302.4c2-.7,6.8,1.6,6.4,3.4-.1.5-1.3,2.5-1.8,2.7l-6.2-3.7c-.2-.4,1.1-2.2,1.6-2.4h0Z"/>
      <polygon points="36.9 234.5 30 234.5 30.5 230.3 36.5 230.3 36.9 234.5"/>
      <path d="M140,237.6l-.8.8-3.2-2.2,1.5-2.7c.7-.5,7.4,2.4,4.4,4.2l-1.9-.2h0Z"/>
      <path d="M122.5,203.9l2.1,3.6-2.7,1.3c-2.9-1.6-3-4.4.7-4.9Z"/>
      <polygon points="15.2 222.6 15.2 225.6 9.7 225.6 10.2 223.4 15.2 222.6"/>
      <polygon points="15.1 193.5 15.7 195.4 10.2 195.4 10.2 193.5 15.1 193.5"/>
    </g>
  </g>
  <rect class="st0" x="0" y="0" width=".1" height=".1"/>
  <rect class="st0" x="-.5" y="396.3" width=".5" height=".5"/>
  <rect class="st0" x="396.9" y="396.9" width="1" height="1" transform="translate(794.7 794.7) rotate(180)"/>
  <rect class="st0" x="396.9" y="0" width="0" height="0"/>
</svg>