<?xml version="1.0" encoding="UTF-8"?><svg id="_圖層_2" xmlns="http://www.w3.org/2000/svg" viewBox="0 0 399.33 398.87"><g id="_圖層_2-2"><rect x=".95" y=".5" width=".1" height=".1" style="fill:none; stroke:#000; stroke-miterlimit:10;"/><rect x=".5" y="396.9" width=".51" height=".51" style="fill:none; stroke:#000; stroke-miterlimit:10;"/><rect x="397.86" y="397.4" width=".97" height=".97" transform="translate(796.68 795.77) rotate(180)" style="fill:none; stroke:#000; stroke-miterlimit:10;"/><g id="_圖層_1-2"><g id="uuid-8b847dd8-89a7-4d88-a2e3-f680ff272696"><path d="M308.4,187.93l15.57,61.85-21.78,9.19-17.17,53.76-24.02-41.35-15.26,1.87c-1.75-.34-4.61-5.3-6.02-6.54-2.01-1.75-14.01-4.35-17.47-5.02-3.8-.74-7.76-1.31-11.62-1.65l-2.52,5.24c.39,1.67,9.83,3.94,8.38,6.02-6.12,4.46-14.14,2.99-21.33,4.27-5.16-7.33,1.51-10.41,5.51-15.49.59-.75,1.58-.86.36-1.77l-56.79-8.94-.88-11.76c-2.58.72-3.93-.13-6.33-.71l1.87-3.45,4.46,2.05-.84-10.04c-5.04-5.81-10.52-12.62-14.5-19.22-4.4-7.3-4.71-19.86-5.07-28.64-.46-11.39,1.5-24.38.72-35.12-.59-8.28-3.4-17.29-4.21-25.64,2.65.04,4.75-.79,6.17,1.91,2.64,5.01,6.4,18.85,8.09,24.93,1.05,3.73,2.12,14.55,4.34,16.73.66.65,6.17,3.76,7.03,3.84,4.14.39,15.11-3.91,18.16-3.08l11.75,17.11c8.92,1.77,17.89-.83,26.73,1.4,8.42,9.11,15.95,19.25,25.27,27.43l43.85,4.38c2.27-.69,9-15.83,11.43-18.78,3.29-3.99,11.22-6.01,15.56-9.01l10.59,4.23h-.02Z"/><path d="M19.6,166.69c-.1-.1.27-1.28-.19-1.89s-2.03-.59-1.97-1.96l.78-4.55c10.22.82,20.03-2.41,25.57-11.34,7.04-11.35,3.62-25.88-7.41-33.21-2.07-1.38-9.84-3.45-10.15-3.9-2-2.91,1.02-4.48,1.08-4.74.47-2.01-.29-5.06.02-7.25l-5.18-.1-1.05-1.05.6-28.35h2.83v-3.51h2.45l.35,3.52h2.82v11.23l21.1.7c-.71,6.9.91,15.49.05,22.17-.16,1.2-2.39,1.3-1.47,3.81l4.23,1.05v15.8h9.14c-1.11-10.64.21-21.48-2.13-31.94l2.18-.74-.05-8.04h4.23v-5.62c2.71.36,6.4-1,8.44,1.05v11.59h3.52l.73,8.73-1.47.79c1.44,3.84,1.97,8.34,1.28,12.43-.85,5-5.94,7.75-4.76,13.16h2.82v23.17c1.36.19,3.22-.34,4.43-.02.29.08,3.91,3.37,4.5,3.51,1.15.27,2.52-.09,3.73.02v4.22h5.63v4.93h-3.53s0,2.81,0,2.81l-16.87-.71v11.23h4.93v5.22l-4.28.71-.66,3.91,5.64.41v6.62h-5.63v13.34h4.93v6.33c-1.31.43-4.97-1.11-4.94,1.05.04,3.32,2.44,2.4,4.94,2.44v5.63h-5.63v25.98l-10.54.7v-4.92h-5.93l-.41,4.93-14.06-.7v-9.13h-3.51v-14.04l-8.73-.04c-.51,1.98-2.48,2.74-1.82,4.96h-10.55v-5.63h-4.93c.13-6.18-.8-12.18.31-18.31l3.88-.69.34-2.81,11.2-.58,1.18,3.39,9.12.03v-11.23l-9.46-.04-.77,2.21-10.86-.04v-2.82h-4.93s0-18.26,0-18.26h4.93s0-2.81,0-2.81h12.65v2.82c2.91-.42,6.9,1.05,9.14-1.06v-10.89c-1.31.53-8.77,3.22-9.03,3.64-.41.65.02,2.68-.12,2.68h-12.66,0ZM68.82,157.55h-12.3c-.19,0-2.42.83-2.5,1.13l.14,4.38,2.69,1.15-2.84,1.48.04,6.59h14.77l.04-5.89-2.86-2.18,2.83-.35v-6.33h0ZM68.82,189.16h-14.77v5.63l2.82,1.05-2.83.35v7.02h14.78l.04-5.89-2.84-1.48,2.84-1.48-.04-5.19h0ZM68.82,219.35h-12.66v7.72l4.23,1.05-4.23.35v5.63h12.66v-5.63h-2.81l2.86-1.82-.04-7.29h0Z"/><path d="M217.87,303.62c1.03,18.52,11.76,34.54,13.19,52.94l-32.87,29.92,5.96-23.16c1.71,1.51,4.76,1.88,6.89,1.24.89-.27,5.83-5.99,6.02-6.67.8-2.85-7.02-10.71-6.74-13.79.39-4.27,5.43-5.43,8.94-6.09l-8.98-25.74c-.04-1.85,6.55-9.84,7.58-8.65h0Z"/><path d="M103.96,124.55c-2.36-2.95-7.14-4.51-9.14-7.37-1.4-2.01-4-8.64-4.93-11.22-5.99-16.56-10.35-54.21-22.48-66.02-1.32-1.28-11.17-4.41-13.09-4.54-2.09-.14-9.73,1.76-10.82,1.08-1.76-3.29-4.5-6.32-2.7-10.13,9.77-1.47,18.72-.64,27.24,4.54l23.65,43.8c1,5.36-.27,11,.5,16.35,1.65,11.42,8.62,22.49,11.78,33.52h0Z"/><path d="M105.36,309.94l.69-1.78c.49-.64.95-.18,1.48-.04,3.35.89,10.96,8.79,14.71,10.59l-3.55,6.28c2.42.95,3.94,3.23,2.22,5.6-1.1,1.52-7.86-2.49-6.29,2.73.63,2.08,5.32,3.3-.11,6.46,2.09,4.23,6.82,3.92,9.82,7.02l-9.52,8.05c-1.02.29-1.13-.68-1.59-1.15-1.48-1.47-12.57-15.02-12.53-16.03.02-.47,1.1-1.12,1.05-1.99-.08-1.63-6.82-7.33,1.8-6.25l2.94-5.44c-1.06-2.17-13.68-8.72-13.81-9.55-.36-2.33,7.29-7.95,8.84-10.13l3.84,5.62h0Z"/><path d="M244.6,337.32c-.99-4.37-1.53-8.85-2.6-13.21-1.41-5.77-5.25-15.78-5.7-21-.3-3.55,2.75-9.94,1.82-13.03-1.05-3.53-11.25-7.73-9.01-13.85.8-.8,12.05,3.67,13.25,5.37,1.67,2.34,5.64,11.91,6.75,15.02,3.46,9.76,5.34,20.78,8.69,30.68l-13.23,10.02h0Z"/><path d="M50.4,289.02c3.05-.21,7.77,2.24,9.58,4.82,5.67,8.07-2.13,16.96-8.39,21.72-4.46,3.38-11.17,5.31-16.33,2.27-1.4-.82-5.32-6.14-5.67-7.68-2.4-10.5,11.45-20.47,20.81-21.13h0Z"/><path d="M32.17,28.41c3.3,4.73,6.08,10.09,9.63,14.63,2.8,3.58,9.94,9.39,11.36,13.23.51,1.39,3.07,12.29,2.89,13.03-3.43,3.27-7.57,4.5-10.09,8.89-1.34-.02-7.29-16.69-8.31-19.07-1.07-2.52-4.68-7.8-5.08-9.68-.58-2.66,2.91-11.51,2.5-11.95-2.1.16-4.05-2.16-6-2.06-2.11.11-3.76,3.39-5.95,3.45-1.22-1.28,7.46-11.57,9.05-10.47h0Z"/><path d="M176.19,67.18l12.85,22.96-18.59,7.08c-.82-3.73-5.06-8.65-5.71-11.99-.9-4.62,4.73-14.29,3.91-19.66l7.54,1.61h0Z"/><path d="M76.49,328.82l-37.91,28.16c-.43-5.52,0-9.31,3.53-13.68,3.53-4.37,7.7-4.45,11.26-7.72,6.09-5.58,11.52-13.59,18.57-18.67,11.65-2.22.42,4.54.42,5.31l4.14,6.6Z"/><path d="M59.68,250.95v28.79c-5.2.51-11.2-1.33-15.8,1.41-1.76-.33-.89-6.27-1.08-7.73h3.52v-15.45l-3.22-.66-.3-6.37h16.88Z"/><path d="M214.01,98.6c1.2,1.61,5.69,3.91,6.29,5.55.43,1.16-.85,3.3-.7,4.62.31,2.61,10.9,11.09,10.9,11.92l-10.87,12.27-10.1-9.61c-.87-3.34,6.34-6.42,5.22-8.62-1.98-3.88-4-.36-5.3-1.01l-4.89-5.07c1.82-4.93,6.27-6.17,9.45-10.05h0Z"/><path d="M182.01,269.21l-3.82-.64-1.2,2.63c-4.15.78-4.52-.15-5.48-3.8l-5.68-.3.71,3.5-4.92.72v-2.82l-5.55.77-.15,3.36-6.25,1.16c-.93-3.22-3.1-1.15-5.62-1.07l.66,3.45-3.8,1.45-1.47-2.14-3.48,2.09-2.51-5.13c12.31-7.33,27.38-11.94,41.91-10.28,1.21.14,7.1,1.82,7.32,2.56l-.66,4.48h-.02Z"/><path d="M159.52,355.59l-3.44-.79c-.42-.58.32-4.93.78-5.38.19-.19,4.78-1.54,5.14-1.52,1.21.07,1.93,1.66,3.36,1.3.92-.23,1.92-2.04,2.25-2.03.29,0,1.08,1.45,1.77,1.73,1.19.47,2.6.2,3.56.71.55.29.02,1.43.64,2.08.77.81,4.85,2.56,4.85,3.54-3.36,2.53-.81,4-.81,4.93,0,1.79-4.23,3.78-5.11,4.54-1.28,1.11-2.67,4.24-4.92,4.23-.52,0-3.95-2.43-4.16-2.8-.33-.56.55-1.57-.35-2.46-.94-.95-3.83-1.39-4.64-3.19l1.08-4.89h0Z"/><path d="M89.14,347.09l-8.08,1.41c-2.32,2.09-1.49,7.11-4.88,7.76-1.36.26-5.48.24-6.67-.33-1.36-.66-5.15-7.38-2.13-8.46l18.78-14.95c6.99,2.06,3.32,9.41,2.98,14.56h0Z"/><path d="M135.61,254.46l-4.92.71c.27,2.97,4.02,4.15,3.41,7.2-.81,4-10.5,14.71-12.2,19.48l-9.5-10.52c.48-.38,6.57,1.88,7.8.26.73-.95,2.97-6.45,3.28-7.8.54-2.41,1.37-16.14,2.22-16.73.93-.66,2.54-.41,3.55.06.83.38,6.96,6.65,6.33,7.36h0Z"/><path d="M16.88,310.59c.45.29,1.75-.92,2.72-.35,1.68.99,5.68,10.07,7.69,12l-5.36,3.76-2.67-1.87-3.22.95-13.23-21.95c-.1-1.13,5.32-4.73,6.49-4.38l7.57,11.85h0Z"/><path d="M122.19,222.79c-.24.36-2.42.35-2.05,1.82,2.21,1.01,7.49,7.64,6.95,9.7-.23.89-3.94,3.46-4.83,3.71-4.54,1.28-7.82-11.7-10.55-14.11l2.09-2.1c-2.49-1.61-5.7-5.57-6.28-8.5-.8-4.05,4.21-6.53,7.35-3.8.97.84,7.73,12.64,7.31,13.27h0Z"/><path d="M272.72,192.68l-.71,3.5c-2.76-.97-4.18.6-6.63.76-4.78.3-12.88.39-17.55-.12-3.01-.34-21.3-4.85-23.44-6.03-2.25-1.24-4.9-5.21-1.97-7.22,15.17,8.73,33.31,7.56,50.29,9.12h0Z"/><path d="M188.78,284.97c4.38,1.56,10.75,4.62,15.26,7.54,2.78,1.8,4.62,4.15,7.49,5.55l-2.17,4.77c-1.74.58-2.77-.97-3.78-2.01l-2.11,2.07c-4.47-2.75-2.21-2.57-2.62-5.16-.3-1.87-3.97-2.57-5.12-3.93l-1.51,2.14c-5.72-.08-1.76-6.88-9.05-6.95l-1.04,3.39c-4.69.05-3.41-2.68-4.34-4.08-.4-.6-3.17-.56-3.79-1.5-.27-7.71,8.42-3.38,12.79-1.83h0Z"/><path d="M32.25,351.37c1.25,9.04-.26,18.28-.35,27.39l-12.14-3.31c-.93-.12-.89-.45-.93-1.26-.17-3.02,5.29-14.61,7.22-17.43,1.47-2.15,3.35-5.25,6.2-5.39Z"/><path d="M231.94,267.11l-.66,3.2-7.08,1.02c1.78,3.31-1.29,8.53-3.84,10.55-2.69,2.13-6.41.73-6,6.3-5.53-1.19-11.2-1.82-11.14-8.73l.58-.74c2.68-1.13,5.79-1.6,8.39-2.89,3.03-1.49,11.32-8.89,13.24-9.27,1.54-.31,4.54,1.2,6.52.57h0Z"/><path d="M148.95,288.88c3.24,4.27-2.96,10.12,4.82,9.74l3.04-6.82,3.39-.12-3.51,8.42c1.73.13,7.1.26,7.64,1.85l.09,3.07-7.72-1.4-.73,8.42-4.1-1.51-.19-6.84-4.46-1.51c-.39,0-3.16,5.93-3.72,6.86-.52.87-.36,1.49-1.92.89-2.86-1.11,2.02-6.74,1.73-8.03-1.11-1.68-3.53-1.27-5.07-1.98-6.75-3.13,4.64-3.86,7.2-2.62-.8-1.35,1.47-9.96,3.5-8.42h0Z"/><path d="M120.81,45.22c3.22,7.89,8.24,15.57,9.1,24.28.64,6.45-2.1,13.41-2.04,19.94-.78.82-3.94-2.06-4.02-2.28-.47-1.21.06-2.4-.2-3.56-.12-.53-1.26-.43-1.38-.96-.17-.7-.15-4.17.07-4.39l2.07-.43c-.4-2.29.42-5.43-.07-7.55-.12-.49-1.09-.46-1.31-1.05-1.68-4.42.53-3.5.66-4.11.23-1.05-1.34-6.12-2.09-6.96-.94-1.05-3.12-.95-3.52-2.15s.73-2.77.65-4.08c-.14-2.35-3.45-6.04,2.09-6.69h0Z"/><path d="M226.83,280.63c1.28,1.24,3.88,11.14,4.31,13.55.91,5.11,2.07,14.62,2.13,19.68.03,3.11-.74,4.12-3.78,4.5l-1.15-4.14-3.34-.17c-2.29-4.7,1.71-4.54,2.4-5.48.61-.83-.13-6.81-.39-7.09s-5.77,1.18-3.4-4.11l2.71-.1c-.62-1.19-.06-2.74-.29-3.71-1.07-4.57-2-2.56-4.63-3.67-1.5-.63-1.27-2.5-.48-3.65,1.11-1.62,2.8-.13.81-4.43,1.22-1.76,3.31-2.94,5.12-1.2h0Z"/><path d="M127.88,116.83c-.67-.5,2.37-3.37,2.57-3.43,1.24-.4,2.38.37,3.43.27,3.26-.33,5.91-.7,9.64-.16,8.41,1.23,1.93,4.39-2.98,3.33l.69,11.23h2.83v2.8h-2.83v7.73h2.83l.03,2.37-2.75,1.23c-.1,1.91.39,10.54-1.86,10.46-3.76-.14-2.06-7.03-2.49-9.47-.19-1.09-1.21-1.84-1.4-2.88-.25-1.32,1.31-.56,1.49-2.02.16-1.29.19-5.83-.07-6.94-.14-.58-1.82-.04-1.45-2.96.17-1.33,1.32-.95,1.45-1.51.63-2.7-.54-6.97.72-10.05h-9.84,0Z"/><path d="M182.87,159.81l.56,13.9-4.18-.04c-1.23-4.43-2.55-12.48-1.13-16.85.73-2.26,7.8-10.7,9.88-11.93,4.36-2.59,8.27,1.61,6.04,6.77-.43.99-5.78,6.09-6.71,6.66s-3.31.14-4.43,1.51h-.02Z"/><path d="M157.28,90.02c-.22.32-2.14.17-1.28,2.93-.88-.3-2.55.03-3.11-.71-2.36-3.07-5.16-11.84-7.24-15.96-.5-1-2.56-2.19-2.69-4.08,1.34-1.7.15-3.47.37-5.56.33-3.11,2.6-14.79,6.71-14.4,2.84,4.23-.8,7.91-1.44,12.58-.22,1.61-.52,2.85-.28,4.55.51,3.62,9.63,19.73,8.98,20.65h0Z"/><path d="M98.97,258.76c.27,1.63,1.94,2.83,2.45,4.11.39.97-.62,2.16.89,4.09.87,1.11,1.76.66,2.39,1.31,1.29,1.34,1.28,3.96,2.15,5.42,1.31,2.19,5.44,3.33,4.78,7.34l-5.92,3.61c-.71-1.6-2.45-2.23-3.22-3.8-1.74-3.58-3.62-7.78-5.64-11.21-1.31-2.23-4.49-2.56-5.45-6.52-.3-1.25,4.78-2.77,5.55-4.07l2-.28h0Z"/><path d="M114.77,249.35c.27.29,1.33.02,1.9.66,3.09,3.53.68,6.23-2.9,7.62-4.38,1.71-4.62-5.58-5.94-7.37-2-2.73-1.53-1.36-3.37-5.06-1.67-3.37-5.07-4.68-5.77-6.18-1.58-3.35,5.32-6.87,6.69-6,.33.21,2.03,2.85,2.26,3.41,1.22,2.98,4.93,10.47,7.13,12.92h0Z"/><path d="M199.6,145.62c4.22-.5,8.42,5.56,10.42,8.9,4.83,8.08,3.46,17.98,8.43,25.99l-3.05,2.97c-6.03-6.53-5.17-15.92-8.07-23.48-2.05-5.33-7.49-8.68-7.73-14.39Z"/><path d="M181.78,126.19c1.44,1.1,3.77,4.01,5.51,5.41,1.87,1.51,3.3-.33,2.42,4.85-1.75-.09-4.1.84-5.26,2.13-.88.97-.83,2.28-1.2,2.65-.18.18-4.57,1.77-4.74,1.59l-.66-6.01c-3.59-1.06-7.88.96-10.96-1.69l-.28-2.4,1.11-1.02c6.66-.47,12.16,2.16,10.8-7.13.89.81,2.52,1.07,3.27,1.64h0Z"/><path d="M124.2,293.23c2.43,4.23-3.35,17.22-8.27,14.98-.36-.17-5.86-4.94-6.05-5.3-1.23-2.32,7.06-8.21,7.58-11.07,2.47-.7,4.71-.03,6.73,1.39h0Z"/><path d="M235.29,320.63l6.97,20.57-4.3,2.46-1.12-3.53-3.5.71c-2.21-5.19,3.06-4.43-.26-9.96-1.81-3.02-2.21-.79-3.94-1.6-4.13-1.96,1.12-4.37,1.27-5.01l-.59-4.5,5.47.86h0Z"/><path d="M115.74,95.95l5.11,5.08-2.82.35v3.52c2.22.6,8.11-1.47,9.66.19.55.59.19,2.84,2.29,2.63-3.06,1.92-2.06,3.69-2.11,7.01h-3.53v-6.33c-3.48-.42-7.05,1.4-10.24-.66l-.3-7.07c-2.63-.35-9.38,1.2-10.54-1.76-.35-1.36,1.03-1.29,1.96-1.53,1.4-.36,9.81-1.68,10.51-1.44h0Z"/><path d="M177.71,120.95c-1.15,1.97-5.16,1.59-6.93-.27-1.19-1.25-8.52-11.18-8.85-12.23-.44-1.41-.21-2.92-.49-4.42-.13-.7-1.2-1.42-1.23-2.3-.04-1.62,2.56-3.49,3.86-1.74l13.36,18.97c.36.58.63,1.39.27,2h0Z"/><path d="M184.11,395.61c-2.88-2.2-17.51-10.52-18.67-12.62-.81-1.47,2.06-3.22,2.51-4.61l18.7,10.9-2.53,6.33h0Z"/><path d="M68.82,308.54c-2.78,4.07-4.96,8.81-8.08,12.64-1.77,2.18-9.19,9.86-11.23,11.27s-5.78-2.7-3.93-4.64l23.24-19.28h0Z"/><path d="M256.54,178.62c-3.38.67-4.94-.94-7.36-2.83-5.94-4.63-11.2-12.35-17.28-17.14l-.66-6.01,25.3,25.98h0Z"/><path d="M18.89,47.31v14.75c-1.8-.59-2.4-2.72-3.53-3.85-.71-.71-.89-1.53-1.75-.37-1.54,5.32,2.88,10.17-1.05,14.76l-2.85-5.97c-.08-1.74,3.25-19.08,3.92-20,1.33-1.86,3.65.71,5.27.7h0Z"/><polygon points="251.63 182.13 248.78 181.11 225.59 160.68 222.1 161.77 221.39 154.05 225.3 154.71 251.63 182.13"/><path d="M35.78,12.19v5.63c-2.89.06-4.73-.97-5.98,2.09l-2.03-1.36-3.52,2.73c-4.66-2.44,1.16-5.85.92-7.24-2.24-2.83-6.94-5.04-1.75-7.44,3.97,4.23,5.92,6.73,12.35,5.59h0Z"/><path d="M96.95,45.91l-.7,5.62h6.33v4.22h-7.73l1.39,1.75-5.24,3.86-2.35-3.17,2.61-2.9c-2.83-3.81-.09-3.61.05-4.23.35-1.49-.2-3.55,0-5.16h5.64Z"/><path d="M94.13,37.48v3.52h-5.63c1.9,1.9.41,3.85.7,6.32h-5.63l.71-4.92c-2.39.59-4.13-2.6-1.41-3.16l-3.5-2.81,3.72-3.07c3.86,2.9,5.65,5.14,11.04,4.12h0Z"/><path d="M81.48,266.4l-.62,9.43-2.9.42,2.15,1.08-.15,6.88c-.66,1.99-3.69,1.04-5.11.53l-.46-8.12,2.16-.39c-1.75-3.22.1-6.45,0-9.82h4.93Z"/><path d="M51.94,7.98l.35-1.42.69.03c1.51,2.42,7.27,5.29,7.2,7.95-.2,8.41-10.78-3.46-11.07-6.55l-3.07,1.36c-4.72-3.72.28-5.02,3.43-7.01l2.41,1.87-1.36,2.7,1.41,1.07h0Z"/><path d="M105.37,260.78l-11.24-4.93,2.82-10.52c4.5-1.42,9.12,14.56,8.42,15.45Z"/><path d="M113.11,130.17v8.43c-1.91-.32-7.87.73-8.84-.66l-.31-7.77h9.15Z"/><path d="M293.13,118.95l6.98,2.44-2.04,5.7-6.08-1.07c-1.05-1.42.99-5.3,1.13-7.06h0Z"/><path d="M119.44,206l-3.5,1.42-4.23-9.11c4.5-2.27,5.32,4.95,7.72,7.69Z"/><path d="M74.52,304.21l.74-2.59c4.2-.85,9.52,2.18,5.16,6.17l-5.91-3.59h0Z"/><path d="M28.39,328.2c1.38.4,2.91,4.08,2.45,5.62l-3.15-4.22h-14.77l-1.04-1.05,1.04-1.05c.26,0,.48.69.7.69,3.2,0,12.52-.65,14.77,0h0Z"/><rect x="32.25" y="229.88" width="6.33" height="4.22"/><path d="M18.19,168.09l-3.92-.66.42-4.94c1.04-1.17,4.47,4.27,3.51,5.61h0Z"/><polygon points="17.49 222.17 17.49 225.68 11.86 225.67 11.86 222.87 17.49 222.17"/><path d="M122.69,203.95c1.72-.31,4.79,4.44.5,4.79-2.2.19-3.09-4.33-.5-4.79Z"/></g></g></g></svg>