<?xml version="1.0" encoding="UTF-8"?><svg id="_圖層_2" xmlns="http://www.w3.org/2000/svg" xmlns:xlink="http://www.w3.org/1999/xlink" viewBox="0 0 549.71 145.07"><defs><linearGradient id="_未命名漸層_4" x1="0" y1="46.63" x2="179.47" y2="46.63" gradientUnits="userSpaceOnUse"><stop offset="0" stop-color="#1d2a58"/><stop offset="1" stop-color="#315da3"/></linearGradient><linearGradient id="_未命名漸層_68" x1="2.57" y1="46.63" x2="180.91" y2="46.63" gradientUnits="userSpaceOnUse"><stop offset="0" stop-color="#222d5d"/><stop offset="1" stop-color="#315da3"/></linearGradient><linearGradient id="_未命名漸層_67" x1="5.14" y1="46.63" x2="182.36" y2="46.63" gradientUnits="userSpaceOnUse"><stop offset="0" stop-color="#272f62"/><stop offset="1" stop-color="#315da3"/></linearGradient><linearGradient id="_未命名漸層_66" x1="7.7" y1="46.63" x2="183.8" y2="46.63" gradientUnits="userSpaceOnUse"><stop offset="0" stop-color="#2c3268"/><stop offset="1" stop-color="#315da3"/></linearGradient><linearGradient id="_未命名漸層_65" x1="10.27" y1="46.63" x2="185.25" y2="46.63" gradientUnits="userSpaceOnUse"><stop offset="0" stop-color="#31356d"/><stop offset="1" stop-color="#315da3"/></linearGradient><linearGradient id="_未命名漸層_64" x1="12.84" y1="46.63" x2="186.69" y2="46.63" gradientUnits="userSpaceOnUse"><stop offset="0" stop-color="#363872"/><stop offset="1" stop-color="#315da3"/></linearGradient><linearGradient id="_未命名漸層_63" x1="15.41" y1="46.63" x2="188.14" y2="46.63" gradientUnits="userSpaceOnUse"><stop offset="0" stop-color="#3b3b78"/><stop offset="1" stop-color="#315da3"/></linearGradient><linearGradient id="_未命名漸層_62" x1="17.98" y1="46.63" x2="189.58" y2="46.63" gradientUnits="userSpaceOnUse"><stop offset="0" stop-color="#403f7e"/><stop offset="1" stop-color="#315da3"/></linearGradient><linearGradient id="_未命名漸層_61" x1="20.55" y1="46.63" x2="191.03" y2="46.63" gradientUnits="userSpaceOnUse"><stop offset="0" stop-color="#454284"/><stop offset="1" stop-color="#315da3"/></linearGradient><linearGradient id="_未命名漸層_60" x1="23.11" y1="46.63" x2="192.47" y2="46.63" gradientUnits="userSpaceOnUse"><stop offset="0" stop-color="#49468a"/><stop offset="1" stop-color="#315da3"/></linearGradient><linearGradient id="_未命名漸層_59" x1="25.68" y1="46.63" x2="193.92" y2="46.63" gradientUnits="userSpaceOnUse"><stop offset="0" stop-color="#4e4a90"/><stop offset="1" stop-color="#315da3"/></linearGradient><linearGradient id="_未命名漸層_6" x1="28.25" y1="46.63" x2="195.36" y2="46.63" gradientUnits="userSpaceOnUse"><stop offset="0" stop-color="#534d96"/><stop offset="1" stop-color="#315da3"/></linearGradient><linearGradient id="_未命名漸層_6-2" x1="239.52" y1="45.84" x2="256.62" y2="45.84" xlink:href="#_未命名漸層_6"/><linearGradient id="_未命名漸層_5" x1="262.7" y1="46.56" x2="464.28" y2="46.56" gradientUnits="userSpaceOnUse"><stop offset=".03" stop-color="#4d2e7a"/><stop offset="1" stop-color="#856aa5"/></linearGradient><linearGradient id="_未命名漸層_3" x1="139.3" y1="46.32" x2="235.22" y2="46.32" gradientUnits="userSpaceOnUse"><stop offset="0" stop-color="#534d96" stop-opacity="0"/><stop offset=".41" stop-color="#46559c"/><stop offset="1" stop-color="#315da3"/></linearGradient><linearGradient id="_未命名漸層_9" x1="359.59" y1="45.84" x2="554.34" y2="45.84" gradientUnits="userSpaceOnUse"><stop offset="0" stop-color="#4a2c85"/><stop offset="1" stop-color="#856aa5"/></linearGradient><linearGradient id="_未命名漸層_9-2" x1="359.59" y1=".59" x2="554.34" y2=".59" xlink:href="#_未命名漸層_9"/><linearGradient id="_未命名漸層_9-3" x1="359.59" y1="45.9" x2="554.34" y2="45.9" xlink:href="#_未命名漸層_9"/><linearGradient id="_未命名漸層_9-4" x1="359.59" y1="63.01" x2="554.34" y2="63.01" xlink:href="#_未命名漸層_9"/><linearGradient id="_未命名漸層_9-5" x1="359.59" y1="85.75" x2="554.34" y2="85.75" xlink:href="#_未命名漸層_9"/><linearGradient id="_未命名漸層_9-6" x1="359.59" y1="6.3" x2="554.34" y2="6.3" xlink:href="#_未命名漸層_9"/><linearGradient id="_未命名漸層_9-7" x1="359.59" y1="51.64" x2="554.34" y2="51.64" xlink:href="#_未命名漸層_9"/><linearGradient id="_未命名漸層_9-8" x1="359.59" y1="63.01" x2="554.34" y2="63.01" xlink:href="#_未命名漸層_9"/><linearGradient id="_未命名漸層_9-9" x1="359.59" y1="74.38" x2="554.34" y2="74.38" xlink:href="#_未命名漸層_9"/><linearGradient id="_未命名漸層_9-10" x1="359.59" y1="85.75" x2="554.34" y2="85.75" xlink:href="#_未命名漸層_9"/><linearGradient id="_未命名漸層_9-11" x1="359.59" y1="11.87" x2="554.34" y2="11.87" xlink:href="#_未命名漸層_9"/><linearGradient id="_未命名漸層_9-12" x1="359.59" y1="6.3" x2="554.34" y2="6.3" xlink:href="#_未命名漸層_9"/><linearGradient id="_未命名漸層_9-13" x1="359.59" y1="6.3" x2="554.34" y2="6.3" xlink:href="#_未命名漸層_9"/><linearGradient id="_未命名漸層_9-14" x1="359.59" y1="17.66" x2="554.34" y2="17.66" xlink:href="#_未命名漸層_9"/><linearGradient id="_未命名漸層_9-15" x1="359.59" y1="40.27" x2="554.34" y2="40.27" xlink:href="#_未命名漸層_9"/><linearGradient id="_未命名漸層_9-16" x1="339.1" y1="46.4" x2="383.12" y2="46.4" xlink:href="#_未命名漸層_9"/><linearGradient id="_未命名漸層_9-17" x1="339.1" y1="46.4" x2="383.12" y2="46.4" xlink:href="#_未命名漸層_9"/></defs><g id="_圖層_1-2"><path d="M19.01,133.28c.06-.13.3-.68.72-1.65.42-.96.69-1.58.8-1.85.11-.27.36-.85.74-1.74.38-.89.65-1.53.81-1.91s.39-.96.71-1.73c.32-.77.56-1.38.73-1.83.17-.45.37-.98.59-1.58.23-.6.41-1.13.54-1.61.13-.47.26-.91.39-1.32.23.06.69.09,1.38.09.42,0,.75-.03.98-.09-3.75,8.37-6.6,14.83-8.56,19.39h-.84c-1.15-3.23-2.45-6.79-3.88-10.65l-4.74,10.65h-.82c-.65-1.55-1.6-3.86-2.84-6.91-1.24-3.05-2.29-5.67-3.15-7.87s-1.49-3.73-1.9-4.61c.32.06.87.09,1.66.09.61,0,1.07-.03,1.38-.09,1.16,4.09,3.11,9.25,5.83,15.48h.06c1.96-4.55,3.21-7.49,3.75-8.81-.38-1-.72-1.91-1.03-2.74-.31-.83-.6-1.59-.86-2.27-.26-.69-.48-1.24-.64-1.65.34.06.92.09,1.76.09.75,0,1.29-.03,1.63-.09.53,2.4,2.11,7.47,4.76,15.22h.06Z" style="fill:#231815;"/><path d="M31.05,120.61c-.3-.31-.45-.66-.45-1.05s.15-.74.45-1.04.65-.45,1.04-.45.75.15,1.07.45c.32.3.47.65.47,1.04s-.16.74-.47,1.05c-.32.31-.67.46-1.07.46s-.74-.15-1.04-.46ZM30.88,130.25c0-2.61-.09-4.52-.26-5.73l.06-.09c.84.06,1.7.05,2.56-.03.12,0,.19.01.22.04.03.03.05.12.05.26-.17,1.65-.26,3.34-.27,5.07v2.09c0,2.14.1,3.91.3,5.31l-.08.09c-.37-.06-.83-.09-1.4-.09s-1.03.03-1.38.09l-.06-.09c.17-1.31.26-3.09.26-5.31v-1.61Z" style="fill:#231815;"/><path d="M40.81,127.32l.09.06c.69-1.18,1.3-2,1.81-2.46.52-.46,1.16-.69,1.93-.69.24,0,.6.07,1.07.2l.12.12-.59,2.19-.23.06c-.3-.28-.81-.42-1.54-.42-.65,0-1.2.35-1.64,1.04-.67,1.02-1.01,1.99-1.01,2.92v1.53c0,2.2.09,3.97.26,5.31l-.06.09c-.35-.06-.82-.09-1.38-.09s-1.03.03-1.38.09l-.06-.09c.17-1.22.26-2.99.26-5.31v-1.61c0-2.72-.09-4.63-.26-5.73l.06-.09c.86.08,1.66.05,2.39-.09.12,0,.17.1.17.3v2.68Z" style="fill:#231815;"/><path d="M57.36,134.1l.53.73c-.54.79-1.24,1.42-2.1,1.9-.86.48-1.79.72-2.79.72-1.97,0-3.47-.65-4.51-1.94-.85-1.07-1.28-2.57-1.28-4.51,0-2.04.6-3.69,1.8-4.92,1.2-1.24,2.54-1.86,4.01-1.86,1.68,0,2.91.55,3.69,1.66.78,1.11,1.17,2.4,1.17,3.86,0,.37-.17.55-.52.55h-7.79c0,1.75.24,2.99.71,3.74.71,1.12,1.78,1.68,3.22,1.68,1.62,0,2.9-.54,3.85-1.63ZM49.67,129.01h5.44c.28,0,.42-.13.42-.39,0-.95-.26-1.71-.79-2.26s-1.09-.83-1.71-.83c-.22,0-.47.05-.75.15-.28.1-.6.27-.97.5-.37.23-.7.6-1.01,1.09-.31.5-.52,1.08-.63,1.74Z" style="fill:#231815;"/><path d="M62.21,131.27v-8.31c0-2.81-.09-4.71-.26-5.69l.06-.1c.88-.06,1.74-.25,2.56-.59.17,0,.26.1.27.3-.17,2.38-.26,4.23-.27,5.54v8.84c0,2.63.09,4.6.27,5.9l-.07.09c-.36-.06-.82-.09-1.38-.09s-1.03.03-1.38.09l-.06-.09c.17-1.26.26-3.22.26-5.9Z" style="fill:#231815;"/><path d="M78.13,134.1l.53.73c-.54.79-1.24,1.42-2.1,1.9-.86.48-1.79.72-2.79.72-1.97,0-3.47-.65-4.51-1.94-.85-1.07-1.28-2.57-1.28-4.51,0-2.04.6-3.69,1.8-4.92,1.2-1.24,2.54-1.86,4.01-1.86,1.68,0,2.91.55,3.69,1.66.78,1.11,1.17,2.4,1.17,3.86,0,.37-.17.55-.52.55h-7.79c0,1.75.24,2.99.71,3.74.71,1.12,1.78,1.68,3.22,1.68,1.62,0,2.9-.54,3.85-1.63ZM70.44,129.01h5.44c.28,0,.42-.13.42-.39,0-.95-.26-1.71-.79-2.26s-1.09-.83-1.71-.83c-.22,0-.47.05-.75.15-.28.1-.6.27-.97.5-.37.23-.7.6-1.01,1.09-.31.5-.52,1.08-.63,1.74Z" style="fill:#231815;"/><path d="M81.8,134.11l.45-.03c1.02,1.38,2.18,2.07,3.48,2.08.81,0,1.46-.21,1.96-.64.5-.43.75-1.01.75-1.75,0-.66-.24-1.14-.72-1.46-.48-.32-1.23-.61-2.26-.87-1.1-.29-1.97-.7-2.59-1.22-.62-.52-.94-1.3-.94-2.33,0-1.16.44-2.06,1.33-2.7.88-.64,1.92-.96,3.12-.96,1.53,0,2.86.32,4,.96l.06.11-.6,2.15-.41.03c-.38-.42-.65-.72-.83-.91-.18-.18-.49-.4-.95-.66-.45-.26-.92-.39-1.39-.39-.65,0-1.19.16-1.61.47-.42.31-.63.76-.63,1.34,0,1.08.91,1.83,2.74,2.25,1.22.29,2.2.72,2.94,1.29s1.11,1.4,1.11,2.48c0,.46-.08.91-.22,1.35-.15.44-.4.88-.74,1.32-.34.44-.87.79-1.57,1.05-.71.26-1.54.39-2.5.39-1.46,0-2.94-.29-4.45-.88l.49-2.47Z" style="fill:#231815;"/><path d="M93.48,134.11l.45-.03c1.02,1.38,2.18,2.07,3.48,2.08.81,0,1.46-.21,1.96-.64.5-.43.75-1.01.75-1.75,0-.66-.24-1.14-.72-1.46-.48-.32-1.23-.61-2.26-.87-1.1-.29-1.97-.7-2.59-1.22-.62-.52-.94-1.3-.94-2.33,0-1.16.44-2.06,1.33-2.7.88-.64,1.92-.96,3.12-.96,1.53,0,2.86.32,4,.96l.06.11-.6,2.15-.41.03c-.38-.42-.65-.72-.83-.91-.18-.18-.49-.4-.95-.66-.45-.26-.92-.39-1.39-.39-.65,0-1.19.16-1.61.47-.42.31-.63.76-.63,1.34,0,1.08.91,1.83,2.74,2.25,1.22.29,2.2.72,2.94,1.29s1.11,1.4,1.11,2.48c0,.46-.08.91-.22,1.35-.15.44-.4.88-.74,1.32-.34.44-.87.79-1.57,1.05-.71.26-1.54.39-2.5.39-1.46,0-2.94-.29-4.45-.88l.49-2.47Z" style="fill:#231815;"/><path d="M116.31,130.43c-.59,1.37-1.09,2.64-1.51,3.8s-.73,2.17-.95,3.03c-.24-.06-.67-.09-1.32-.09-.44,0-.78.03-1.01.09,3.27-7.33,6.11-13.83,8.52-19.49h.82c.67,1.59,1.62,3.91,2.84,6.96,1.22,3.05,2.29,5.68,3.2,7.9.91,2.22,1.58,3.76,2.01,4.63-.32-.06-.86-.09-1.65-.09-.61,0-1.08.03-1.39.09-.04-.13-.08-.29-.14-.47-.05-.18-.12-.42-.22-.72-.09-.3-.2-.64-.33-1.02-.12-.38-.26-.8-.42-1.25s-.33-.98-.54-1.56c-.21-.58-.43-1.18-.66-1.8-.65-.02-1.26-.03-1.83-.04s-1.12,0-1.63,0c-1.13,0-2.4.01-3.81.04ZM123.06,129.05c-.42-1.1-.88-2.26-1.38-3.47-.49-1.21-1.03-2.48-1.61-3.8h-.06l-3.12,7.26c.23,0,.72,0,1.47.03.75.02,1.29.03,1.62.03.83,0,1.86-.01,3.07-.04Z" style="fill:#231815;"/><path d="M143.16,131.86c0,2.24.09,4.01.27,5.31l-.07.09c-.36-.06-.82-.09-1.38-.09s-1.03.03-1.38.09l-.06-.09c.17-1.31.26-3.09.26-5.31v-2.88c0-1.16-.16-1.95-.47-2.36-.31-.41-.86-.62-1.65-.62-.6,0-1.29.2-2.07.59-.78.39-1.51,1-2.2,1.83v3.44c0,2.28.09,4.06.26,5.31l-.06.09c-.35-.06-.82-.09-1.38-.09s-1.03.03-1.38.09l-.06-.09c.17-1.2.26-2.97.26-5.31v-1.61c0-2.72-.09-4.63-.26-5.73l.06-.09c.86.08,1.66.05,2.39-.09.12,0,.17.1.17.3v2.15l.06.09c1.52-1.77,3.21-2.65,5.1-2.65,1.29,0,2.23.38,2.8,1.15.57.77.86,1.94.86,3.51,0,.32,0,.81-.03,1.48-.02.67-.03,1.17-.03,1.48Z" style="fill:#231815;"/><path d="M155.91,135.46c-1.05,1.33-2.32,2-3.81,2s-2.75-.63-3.7-1.88c-.95-1.26-1.43-2.8-1.43-4.62,0-2,.61-3.62,1.82-4.86,1.21-1.24,2.76-1.86,4.64-1.86.88,0,1.71.24,2.48.71v-1.93c0-2.84-.09-4.75-.26-5.73l.06-.1c.88-.06,1.74-.25,2.56-.59.17,0,.26.1.27.3-.17,2.18-.26,4.03-.27,5.54v9.08c0,1.99.17,3.87.5,5.66l-.06.09c-.39-.06-.83-.09-1.31-.09-.23,0-.57.03-1.02.09-.17,0-.26-.03-.26-.09l-.16-1.71h-.06ZM155.91,133.87v-6.65c-.38-.58-.77-1.01-1.18-1.28-.41-.27-.95-.41-1.62-.41-.41,0-.82.07-1.21.22-.39.15-.8.39-1.21.73-.41.34-.74.87-.99,1.6-.25.73-.37,1.61-.37,2.63,0,1.73.27,3.03.82,3.91.55.88,1.25,1.32,2.12,1.32,1.32,0,2.53-.69,3.64-2.06Z" style="fill:#231815;"/><path d="M171.65,118.15l.06-.09c.15.06.57.09,1.24.09l.42-.06,10.1,13.09c.79,1.02,1.25,1.56,1.4,1.62.14.07.24-.02.29-.27.03-.14.05-.35.06-.62v-7.86c0-2.53-.1-4.5-.29-5.9l.06-.09c.36.06.7.09,1.03.09s.67-.03,1.03-.09l.06.09c-.12,1.54-.21,3.14-.27,4.82s-.11,3.07-.13,4.18c-.02,1.11-.05,2.68-.09,4.73-.04,2.04-.07,3.6-.09,4.66-.04.6-.22.91-.55.91-.48,0-.9-.24-1.25-.73l-10.31-12.99c-.3-.38-.52-.65-.64-.81s-.24-.21-.33-.16-.15.18-.16.38-.02.55-.02,1.06v7.05c0,2.54.1,4.51.29,5.91l-.06.09c-.35-.06-.7-.09-1.03-.09s-.67.03-1.03.09l-.06-.09c.24-2.28.38-5.34.42-9.17.04-3.83,0-7.11-.14-9.85Z" style="fill:#231815;"/><path d="M200.78,134.1l.53.73c-.54.79-1.24,1.42-2.1,1.9-.86.48-1.79.72-2.79.72-1.97,0-3.47-.65-4.51-1.94-.85-1.07-1.28-2.57-1.28-4.51,0-2.04.6-3.69,1.8-4.92,1.2-1.24,2.54-1.86,4.01-1.86,1.68,0,2.91.55,3.69,1.66.78,1.11,1.17,2.4,1.17,3.86,0,.37-.17.55-.52.55h-7.79c0,1.75.24,2.99.71,3.74.71,1.12,1.78,1.68,3.22,1.68,1.62,0,2.9-.54,3.85-1.63ZM193.09,129.01h5.44c.28,0,.42-.13.42-.39,0-.95-.26-1.71-.79-2.26s-1.09-.83-1.71-.83c-.22,0-.47.05-.75.15-.28.1-.6.27-.97.5-.37.23-.7.6-1.01,1.09-.31.5-.52,1.08-.63,1.74Z" style="fill:#231815;"/><path d="M205.79,124.52c0-.61.02-1.3.06-2.09.04-.79.06-1.35.06-1.68l.06-.09c.31-.04.58-.09.8-.16.22-.07.47-.17.75-.3.28-.13.49-.22.63-.28.18,0,.27.1.28.29-.1,1.26-.15,2.69-.16,4.3h1.4c.38,0,1.06-.02,2.06-.06l.14.2c-.15.36-.27.72-.35,1.1-.39-.04-1.1-.06-2.13-.06h-1.12v3.76c0,.68-.01,1.46-.04,2.33-.03.87-.04,1.42-.04,1.64,0,1.53.33,2.35.98,2.45.76.12,1.53.05,2.32-.23l.36.73c-1.14.73-2.28,1.09-3.41,1.08-.71,0-1.3-.25-1.79-.74-.49-.49-.73-1.19-.73-2.1,0-.22-.02-.92-.06-2.08-.04-1.16-.06-2.08-.06-2.76v-4.08c-.92,0-1.62.02-2.1.06l-.14-.2c.28-.39.49-.76.65-1.1.28.04.81.06,1.6.06Z" style="fill:#231815;"/><path d="M218.9,137.29c-1.91-4.97-3.68-9.25-5.31-12.83.32.06.84.09,1.56.09s1.22-.03,1.48-.09c.06.17.23.72.52,1.63s.47,1.51.56,1.79c.09.28.26.8.51,1.56.25.76.46,1.36.62,1.79s.36.95.6,1.57c.24.62.48,1.2.72,1.75h.19c.61-1.31,1.44-3.46,2.49-6.42-.5-1.39-.93-2.62-1.28-3.7.32.06.84.09,1.56.09s1.22-.03,1.48-.09c.89,4.12,1.83,7.48,2.82,10.08h.23c1.16-2.71,2.38-6.07,3.64-10.08.17.06.5.09.99.09.67,0,1.09-.03,1.27-.09-1.18,2.59-3,6.87-5.47,12.83-.17-.06-.54-.09-1.09-.09-.32,0-.57.03-.76.09-.29-.8-.73-1.99-1.32-3.57-.59-1.58-1.03-2.75-1.31-3.51-.59,1.42-1.47,3.79-2.65,7.11-.17-.06-.53-.09-1.07-.09-.45,0-.77.03-.96.09Z" style="fill:#231815;"/><path d="M235.11,131.18c0-2.1.56-3.78,1.67-5.05,1.12-1.27,2.6-1.9,4.47-1.9s3.35.6,4.38,1.8c1.02,1.2,1.53,2.83,1.53,4.89,0,1.95-.54,3.53-1.62,4.73-1.08,1.2-2.55,1.81-4.41,1.81s-3.31-.59-4.39-1.78c-1.09-1.19-1.63-2.69-1.63-4.5ZM241.05,125.52c-.87,0-1.58.26-2.14.78s-.94,1.15-1.14,1.88c-.2.73-.29,1.56-.29,2.49,0,.87.1,1.7.29,2.48.2.78.61,1.5,1.24,2.15s1.43.98,2.39.98,1.79-.46,2.44-1.38c.64-.92.97-2.07.97-3.47,0-1.96-.26-3.44-.78-4.44-.52-.99-1.51-1.49-2.97-1.49Z" style="fill:#231815;"/><path d="M253.65,127.32l.09.06c.69-1.18,1.3-2,1.81-2.46.52-.46,1.16-.69,1.93-.69.24,0,.6.07,1.07.2l.12.12-.59,2.19-.23.06c-.3-.28-.81-.42-1.54-.42-.65,0-1.2.35-1.64,1.04-.67,1.02-1.01,1.99-1.01,2.92v1.53c0,2.2.09,3.97.26,5.31l-.06.09c-.35-.06-.82-.09-1.38-.09s-1.03.03-1.38.09l-.06-.09c.17-1.22.26-2.99.26-5.31v-1.61c0-2.72-.09-4.63-.26-5.73l.06-.09c.86.08,1.66.05,2.39-.09.12,0,.17.1.17.3v2.68Z" style="fill:#231815;"/><path d="M261.85,131.27v-8.31c0-2.81-.09-4.71-.26-5.69l.06-.1c.88-.06,1.74-.25,2.56-.59.17,0,.26.1.27.3-.17,2.38-.26,4.23-.27,5.54v7.66c.22-.02.45-.06.68-.14.23-.07.44-.17.61-.29.6-.47,1.38-1.22,2.33-2.24s1.72-1.99,2.34-2.9c1.61,0,2.61-.03,2.98-.09l.06.09c-1.93,1.63-3.92,3.51-5.96,5.64.84,1,1.63,1.89,2.35,2.66s1.49,1.57,2.32,2.39c.83.82,1.46,1.47,1.92,1.96l-.06.09c-.3-.06-.89-.09-1.77-.09-.79,0-1.44.03-1.94.09-.86-1.24-1.45-2.07-1.74-2.49-.3-.42-.7-.94-1.21-1.56-.51-.62-1.07-1.25-1.68-1.91-.22-.19-.62-.3-1.21-.32v.29c0,2.63.09,4.6.27,5.9l-.07.09c-.36-.06-.82-.09-1.38-.09s-1.03.03-1.38.09l-.06-.09c.17-1.26.26-3.22.26-5.9Z" style="fill:#231815;"/><path d="M284.72,134.1l.53.73c-.54.79-1.24,1.42-2.1,1.9-.86.48-1.79.72-2.79.72-1.97,0-3.47-.65-4.51-1.94-.85-1.07-1.28-2.57-1.28-4.51,0-2.04.6-3.69,1.8-4.92,1.2-1.24,2.54-1.86,4.01-1.86,1.68,0,2.91.55,3.69,1.66.78,1.11,1.17,2.4,1.17,3.86,0,.37-.17.55-.52.55h-7.79c0,1.75.24,2.99.71,3.74.71,1.12,1.78,1.68,3.22,1.68,1.62,0,2.9-.54,3.85-1.63ZM277.03,129.01h5.44c.28,0,.42-.13.42-.39,0-.95-.26-1.71-.79-2.26s-1.09-.83-1.71-.83c-.22,0-.47.05-.75.15-.28.1-.6.27-.97.5-.37.23-.7.6-1.01,1.09-.31.5-.52,1.08-.63,1.74Z" style="fill:#231815;"/><path d="M297.51,135.46c-1.05,1.33-2.32,2-3.81,2s-2.75-.63-3.7-1.88c-.95-1.26-1.43-2.8-1.43-4.62,0-2,.61-3.62,1.82-4.86,1.21-1.24,2.76-1.86,4.64-1.86.88,0,1.71.24,2.48.71v-1.93c0-2.84-.09-4.75-.26-5.73l.06-.1c.88-.06,1.74-.25,2.56-.59.17,0,.26.1.27.3-.17,2.18-.26,4.03-.27,5.54v9.08c0,1.99.17,3.87.5,5.66l-.06.09c-.39-.06-.83-.09-1.31-.09-.23,0-.57.03-1.02.09-.17,0-.26-.03-.26-.09l-.16-1.71h-.06ZM297.51,133.87v-6.65c-.38-.58-.77-1.01-1.18-1.28-.41-.27-.95-.41-1.62-.41-.41,0-.82.07-1.21.22-.39.15-.8.39-1.21.73-.41.34-.74.87-.99,1.6-.25.73-.37,1.61-.37,2.63,0,1.73.27,3.03.82,3.91.55.88,1.25,1.32,2.12,1.32,1.32,0,2.53-.69,3.64-2.06Z" style="fill:#231815;"/><path d="M314.31,118.15c.62,0,1.42-.01,2.39-.04.97-.03,1.77-.04,2.39-.04,2.83,0,5.25.98,7.23,2.94,1.99,1.96,2.98,4.32,2.98,7.08,0,1.39-.21,2.63-.62,3.73s-.94,1.97-1.58,2.63c-.64.66-1.4,1.2-2.28,1.63-.87.43-1.73.73-2.58.9s-1.72.25-2.62.25c-1.09,0-2.09,0-3.02-.03-.93-.02-1.69-.03-2.3-.03l-1.44.09-.03-.09c.19-1.33.29-3.3.29-5.9v-7.21c0-2.53-.1-4.5-.29-5.9l.06-.09c.31.06.79.09,1.41.09ZM315.49,134.75c0,.49.19.81.56.96.38.15,1.26.22,2.65.22,1.14,0,2.13-.1,2.97-.29.84-.2,1.62-.54,2.35-1.03s1.29-1.22,1.67-2.2c.38-.97.58-2.18.58-3.62,0-1.22-.14-2.35-.42-3.4-.28-1.05-.72-2.05-1.33-2.99-.61-.94-1.47-1.68-2.58-2.22-1.11-.54-2.43-.81-3.97-.81-.83,0-1.45.08-1.86.24-.41.16-.62.47-.62.94v14.21Z" style="fill:#231815;"/><path d="M333.81,120.61c-.3-.31-.45-.66-.45-1.05s.15-.74.45-1.04.65-.45,1.04-.45.75.15,1.07.45c.32.3.47.65.47,1.04s-.16.74-.47,1.05c-.32.31-.67.46-1.07.46s-.74-.15-1.04-.46ZM333.64,130.25c0-2.61-.09-4.52-.26-5.73l.06-.09c.84.06,1.7.05,2.56-.03.12,0,.19.01.22.04.03.03.05.12.05.26-.17,1.65-.26,3.34-.27,5.07v2.09c0,2.14.1,3.91.3,5.31l-.08.09c-.37-.06-.83-.09-1.4-.09s-1.03.03-1.38.09l-.06-.09c.17-1.31.26-3.09.26-5.31v-1.61Z" style="fill:#231815;"/><path d="M340.12,134.11l.45-.03c1.02,1.38,2.18,2.07,3.48,2.08.81,0,1.46-.21,1.96-.64.5-.43.75-1.01.75-1.75,0-.66-.24-1.14-.72-1.46-.48-.32-1.23-.61-2.26-.87-1.1-.29-1.97-.7-2.59-1.22-.62-.52-.94-1.3-.94-2.33,0-1.16.44-2.06,1.33-2.7.88-.64,1.92-.96,3.12-.96,1.53,0,2.86.32,4,.96l.06.11-.6,2.15-.41.03c-.38-.42-.65-.72-.83-.91-.18-.18-.49-.4-.95-.66-.45-.26-.92-.39-1.39-.39-.65,0-1.19.16-1.61.47-.42.31-.63.76-.63,1.34,0,1.08.91,1.83,2.74,2.25,1.22.29,2.2.72,2.94,1.29s1.11,1.4,1.11,2.48c0,.46-.08.91-.22,1.35-.15.44-.4.88-.74,1.32-.34.44-.87.79-1.57,1.05-.71.26-1.54.39-2.5.39-1.46,0-2.94-.29-4.45-.88l.49-2.47Z" style="fill:#231815;"/><path d="M353.14,124.52c0-.61.02-1.3.06-2.09.04-.79.06-1.35.06-1.68l.06-.09c.31-.04.58-.09.8-.16.22-.07.47-.17.75-.3.28-.13.49-.22.63-.28.18,0,.27.1.28.29-.1,1.26-.15,2.69-.16,4.3h1.4c.38,0,1.06-.02,2.06-.06l.14.2c-.15.36-.27.72-.35,1.1-.39-.04-1.1-.06-2.13-.06h-1.12v3.76c0,.68-.01,1.46-.04,2.33-.03.87-.04,1.42-.04,1.64,0,1.53.33,2.35.98,2.45.76.12,1.53.05,2.32-.23l.36.73c-1.14.73-2.28,1.09-3.41,1.08-.71,0-1.3-.25-1.79-.74-.49-.49-.73-1.19-.73-2.1,0-.22-.02-.92-.06-2.08-.04-1.16-.06-2.08-.06-2.76v-4.08c-.92,0-1.62.02-2.1.06l-.14-.2c.28-.39.49-.76.65-1.1.28.04.81.06,1.6.06Z" style="fill:#231815;"/><path d="M365.27,127.32l.09.06c.69-1.18,1.3-2,1.81-2.46.52-.46,1.16-.69,1.93-.69.24,0,.6.07,1.07.2l.12.12-.59,2.19-.23.06c-.3-.28-.81-.42-1.54-.42-.65,0-1.2.35-1.64,1.04-.67,1.02-1.01,1.99-1.01,2.92v1.53c0,2.2.09,3.97.26,5.31l-.06.09c-.35-.06-.82-.09-1.38-.09s-1.03.03-1.38.09l-.06-.09c.17-1.22.26-2.99.26-5.31v-1.61c0-2.72-.09-4.63-.26-5.73l.06-.09c.86.08,1.66.05,2.39-.09.12,0,.17.1.17.3v2.68Z" style="fill:#231815;"/><path d="M373.63,120.61c-.3-.31-.45-.66-.45-1.05s.15-.74.45-1.04.65-.45,1.04-.45.75.15,1.07.45c.32.3.47.65.47,1.04s-.16.74-.47,1.05c-.32.31-.67.46-1.07.46s-.74-.15-1.04-.46ZM373.46,130.25c0-2.61-.09-4.52-.26-5.73l.06-.09c.84.06,1.7.05,2.56-.03.12,0,.19.01.22.04.03.03.05.12.05.26-.17,1.65-.26,3.34-.27,5.07v2.09c0,2.14.1,3.91.3,5.31l-.08.09c-.37-.06-.83-.09-1.4-.09s-1.03.03-1.38.09l-.06-.09c.17-1.31.26-3.09.26-5.31v-1.61Z" style="fill:#231815;"/><path d="M383.25,122.5v3.31c.9-1.05,2.13-1.58,3.69-1.58s2.75.59,3.82,1.76,1.61,2.64,1.61,4.41c0,2.3-.64,4.05-1.91,5.26-1.27,1.2-2.75,1.8-4.44,1.8-1.2,0-2.36-.48-3.47-1.44-.32.58-.64,1.06-.98,1.44-.39,0-.67-.08-.82-.23.1-.51.14-1.25.14-2.22v-12.05c0-2.48-.12-4.37-.36-5.69l.06-.1c.88-.06,1.74-.25,2.58-.59.17,0,.26.1.26.31-.12,1.55-.17,3.42-.17,5.61ZM383.25,134.8c.32.39.72.74,1.21,1.04s.95.46,1.38.46c1.35,0,2.34-.48,2.96-1.43.62-.95.93-2.37.93-4.24,0-1.71-.32-2.99-.96-3.83-.64-.85-1.45-1.27-2.43-1.27-.57,0-1.07.13-1.5.39-.44.26-.97.71-1.59,1.33v7.55Z" style="fill:#231815;"/><path d="M404.1,134.46c-.55.84-1.22,1.56-2.01,2.13-.79.58-1.61.86-2.46.86-1.35,0-2.33-.39-2.94-1.17-.61-.78-.91-1.75-.91-2.92v-3.54c0-2.28-.09-4.05-.26-5.31l.06-.09c.35.06.82.09,1.38.09s1.03-.03,1.38-.09l.06.09c-.17,1.18-.26,2.95-.26,5.31v2.92c0,1.24.17,2.06.52,2.46.34.4.83.6,1.45.6.69,0,1.41-.31,2.17-.93.75-.62,1.38-1.34,1.88-2.17v-2.89c0-2.24-.09-4.01-.27-5.31l.06-.09c.36.06.82.09,1.4.09s1.04-.03,1.39-.09l.06.09c-.17,1.18-.26,2.95-.27,5.31v1.68c0,1.99.16,3.87.49,5.66l-.06.09c-.39-.06-.83-.09-1.3-.09-.23,0-.58.03-1.03.09-.17,0-.26-.03-.26-.09l-.14-2.62-.12-.09Z" style="fill:#231815;"/><path d="M411.96,124.52c0-.61.02-1.3.06-2.09.04-.79.06-1.35.06-1.68l.06-.09c.31-.04.58-.09.8-.16.22-.07.47-.17.75-.3.28-.13.49-.22.63-.28.18,0,.27.1.28.29-.1,1.26-.15,2.69-.16,4.3h1.4c.38,0,1.06-.02,2.06-.06l.14.2c-.15.36-.27.72-.35,1.1-.39-.04-1.1-.06-2.13-.06h-1.12v3.76c0,.68-.01,1.46-.04,2.33-.03.87-.04,1.42-.04,1.64,0,1.53.33,2.35.98,2.45.76.12,1.53.05,2.32-.23l.36.73c-1.14.73-2.28,1.09-3.41,1.08-.71,0-1.3-.25-1.79-.74-.49-.49-.73-1.19-.73-2.1,0-.22-.02-.92-.06-2.08-.04-1.16-.06-2.08-.06-2.76v-4.08c-.92,0-1.62.02-2.1.06l-.14-.2c.28-.39.49-.76.65-1.1.28.04.81.06,1.6.06Z" style="fill:#231815;"/><path d="M430.32,134.1l.53.73c-.54.79-1.24,1.42-2.1,1.9-.86.48-1.79.72-2.79.72-1.97,0-3.47-.65-4.51-1.94-.85-1.07-1.28-2.57-1.28-4.51,0-2.04.6-3.69,1.8-4.92,1.2-1.24,2.54-1.86,4.01-1.86,1.68,0,2.91.55,3.69,1.66.78,1.11,1.17,2.4,1.17,3.86,0,.37-.17.55-.52.55h-7.79c0,1.75.24,2.99.71,3.74.71,1.12,1.78,1.68,3.22,1.68,1.62,0,2.9-.54,3.85-1.63ZM422.63,129.01h5.44c.28,0,.42-.13.42-.39,0-.95-.26-1.71-.79-2.26s-1.09-.83-1.71-.83c-.22,0-.47.05-.75.15-.28.1-.6.27-.97.5-.37.23-.7.6-1.01,1.09-.31.5-.52,1.08-.63,1.74Z" style="fill:#231815;"/><path d="M443.1,135.46c-1.05,1.33-2.32,2-3.81,2s-2.75-.63-3.7-1.88c-.95-1.26-1.43-2.8-1.43-4.62,0-2,.61-3.62,1.82-4.86,1.21-1.24,2.76-1.86,4.64-1.86.88,0,1.71.24,2.48.71v-1.93c0-2.84-.09-4.75-.26-5.73l.06-.1c.88-.06,1.74-.25,2.56-.59.17,0,.26.1.27.3-.17,2.18-.26,4.03-.27,5.54v9.08c0,1.99.17,3.87.5,5.66l-.06.09c-.39-.06-.83-.09-1.31-.09-.23,0-.57.03-1.02.09-.17,0-.26-.03-.26-.09l-.16-1.71h-.06ZM443.1,133.87v-6.65c-.38-.58-.77-1.01-1.18-1.28-.41-.27-.95-.41-1.62-.41-.41,0-.82.07-1.21.22-.39.15-.8.39-1.21.73-.41.34-.74.87-.99,1.6-.25.73-.37,1.61-.37,2.63,0,1.73.27,3.03.82,3.91.55.88,1.25,1.32,2.12,1.32,1.32,0,2.53-.69,3.64-2.06Z" style="fill:#231815;"/><path d="M462.77,136.16c.92,0,1.73-.31,2.42-.93.69-.62,1.03-1.46,1.03-2.51,0-1.14-.3-2.02-.89-2.64-.59-.62-1.45-1.16-2.56-1.63-.73-.3-1.35-.59-1.86-.89-.51-.29-1.03-.66-1.55-1.11-.52-.45-.93-.97-1.22-1.56s-.43-1.27-.43-2.02c0-1.01.31-1.94.93-2.76.62-.83,1.39-1.44,2.32-1.83.8-.33,1.64-.5,2.52-.5,1.06,0,2,.11,2.81.32.81.21,1.36.43,1.65.66l.42.34.06.09c-.41,1.24-.66,2.22-.75,2.95l-.32.03c-.4-.92-.99-1.67-1.75-2.24-.76-.57-1.56-.86-2.38-.86-.75,0-1.35.12-1.8.35-.38.19-.7.55-.96,1.07s-.4,1.05-.4,1.58c0,.57.11,1.08.32,1.54.22.46.53.83.95,1.12.41.29.78.52,1.11.69s.74.34,1.23.53c3.72,1.32,5.58,3.28,5.58,5.89,0,1.69-.64,3.05-1.91,4.08-1.28,1.03-2.88,1.55-4.82,1.55-1.01,0-1.97-.11-2.86-.32-.89-.22-1.53-.43-1.91-.66l-.58-.34-.06-.09c.39-1.46.62-2.47.69-3.04l.28-.03c.45.87,1.14,1.61,2.06,2.24.92.63,1.79.94,2.62.94Z" style="fill:#231815;"/><path d="M481.71,134.1l.53.73c-.54.79-1.24,1.42-2.1,1.9-.86.48-1.79.72-2.79.72-1.97,0-3.47-.65-4.51-1.94-.85-1.07-1.28-2.57-1.28-4.51,0-2.04.6-3.69,1.8-4.92,1.2-1.24,2.54-1.86,4.01-1.86,1.68,0,2.91.55,3.69,1.66.78,1.11,1.17,2.4,1.17,3.86,0,.37-.17.55-.52.55h-7.79c0,1.75.24,2.99.71,3.74.71,1.12,1.78,1.68,3.22,1.68,1.62,0,2.9-.54,3.85-1.63ZM474.02,129.01h5.44c.28,0,.42-.13.42-.39,0-.95-.26-1.71-.79-2.26s-1.09-.83-1.71-.83c-.22,0-.47.05-.75.15-.28.1-.6.27-.97.5-.37.23-.7.6-1.01,1.09-.31.5-.52,1.08-.63,1.74Z" style="fill:#231815;"/><path d="M497.48,131.86c0,2.24.09,4.01.27,5.31l-.07.09c-.36-.06-.82-.09-1.38-.09s-1.03.03-1.38.09l-.06-.09c.17-1.31.26-3.09.26-5.31v-2.88c0-1.16-.16-1.95-.47-2.36-.31-.41-.86-.62-1.65-.62-.6,0-1.29.2-2.07.59-.78.39-1.51,1-2.2,1.83v3.44c0,2.28.09,4.06.26,5.31l-.06.09c-.35-.06-.82-.09-1.38-.09s-1.03.03-1.38.09l-.06-.09c.17-1.2.26-2.97.26-5.31v-1.61c0-2.72-.09-4.63-.26-5.73l.06-.09c.86.08,1.66.05,2.39-.09.12,0,.17.1.17.3v2.15l.06.09c1.52-1.77,3.21-2.65,5.1-2.65,1.29,0,2.23.38,2.8,1.15.57.77.86,1.94.86,3.51,0,.32,0,.81-.03,1.48-.02.67-.03,1.17-.03,1.48Z" style="fill:#231815;"/><path d="M501.26,134.11l.45-.03c1.02,1.38,2.18,2.07,3.48,2.08.81,0,1.46-.21,1.96-.64.5-.43.75-1.01.75-1.75,0-.66-.24-1.14-.72-1.46-.48-.32-1.23-.61-2.26-.87-1.1-.29-1.97-.7-2.59-1.22-.62-.52-.94-1.3-.94-2.33,0-1.16.44-2.06,1.33-2.7.88-.64,1.92-.96,3.12-.96,1.53,0,2.86.32,4,.96l.06.11-.6,2.15-.41.03c-.38-.42-.65-.72-.83-.91-.18-.18-.49-.4-.95-.66-.45-.26-.92-.39-1.39-.39-.65,0-1.19.16-1.61.47-.42.31-.63.76-.63,1.34,0,1.08.91,1.83,2.74,2.25,1.22.29,2.2.72,2.94,1.29s1.11,1.4,1.11,2.48c0,.46-.08.91-.22,1.35-.15.44-.4.88-.74,1.32-.34.44-.87.79-1.57,1.05-.71.26-1.54.39-2.5.39-1.46,0-2.94-.29-4.45-.88l.49-2.47Z" style="fill:#231815;"/><path d="M514.28,120.61c-.3-.31-.45-.66-.45-1.05s.15-.74.45-1.04.65-.45,1.04-.45.75.15,1.07.45c.32.3.47.65.47,1.04s-.16.74-.47,1.05c-.32.31-.67.46-1.07.46s-.74-.15-1.04-.46ZM514.12,130.25c0-2.61-.09-4.52-.26-5.73l.06-.09c.84.06,1.7.05,2.56-.03.12,0,.19.01.22.04.03.03.05.12.05.26-.17,1.65-.26,3.34-.27,5.07v2.09c0,2.14.1,3.91.3,5.31l-.08.09c-.37-.06-.83-.09-1.4-.09s-1.03.03-1.38.09l-.06-.09c.17-1.31.26-3.09.26-5.31v-1.61Z" style="fill:#231815;"/><path d="M532.69,131.86c0,2.24.09,4.01.27,5.31l-.07.09c-.36-.06-.82-.09-1.38-.09s-1.03.03-1.38.09l-.06-.09c.17-1.31.26-3.09.26-5.31v-2.88c0-1.16-.16-1.95-.47-2.36-.31-.41-.86-.62-1.65-.62-.6,0-1.29.2-2.07.59-.78.39-1.51,1-2.2,1.83v3.44c0,2.28.09,4.06.26,5.31l-.06.09c-.35-.06-.82-.09-1.38-.09s-1.03.03-1.38.09l-.06-.09c.17-1.2.26-2.97.26-5.31v-1.61c0-2.72-.09-4.63-.26-5.73l.06-.09c.86.08,1.66.05,2.39-.09.12,0,.17.1.17.3v2.15l.06.09c1.52-1.77,3.21-2.65,5.1-2.65,1.29,0,2.23.38,2.8,1.15.57.77.86,1.94.86,3.51,0,.32,0,.81-.03,1.48-.02.67-.03,1.17-.03,1.48Z" style="fill:#231815;"/><path d="M546.63,128.65c0,1.29-.43,2.37-1.28,3.22s-2.08,1.28-3.67,1.28c-.94,0-1.67-.13-2.18-.4-.63.51-.95,1.06-.95,1.64s.16.94.47,1.12c.31.18.75.27,1.31.27.02,0,.3-.02.85-.06.75-.1,1.58-.15,2.49-.16,2.08,0,3.51.33,4.31.98.85.71,1.28,1.68,1.28,2.92,0,1-.42,1.87-1.25,2.61-.83.74-1.85,1.28-3.05,1.61-1.21.33-2.5.5-3.87.5-.82,0-1.59-.09-2.32-.27-.73-.18-1.38-.54-1.96-1.08-.57-.54-.86-1.21-.86-2.02,0-.6.23-1.25.68-1.93.25-.19,1.07-.67,2.48-1.43.04-.02.07-.04.1-.06-.78-.13-1.36-.43-1.75-.89-.38-.46-.57-1.01-.57-1.66,0-.79.62-1.6,1.86-2.45-1.41-.81-2.12-2.04-2.12-3.69,0-1.37.52-2.46,1.57-3.27,1.04-.81,2.21-1.21,3.51-1.21.66,0,1.26.09,1.79.26.86-.05,1.79-.15,2.8-.29s1.68-.24,2.01-.27l.09.1c-.06.28-.09.53-.09.76s.03.48.09.76l-.09.09c-1.92-.19-2.99-.29-3.21-.3,1.01.65,1.52,1.76,1.52,3.31ZM537.99,140.22c0,.6.26,1.12.79,1.55.53.43,1.08.73,1.65.88.57.15,1.07.23,1.49.23,1.36,0,2.54-.24,3.52-.73.98-.49,1.47-1.16,1.47-2.02,0-.95-.39-1.66-1.16-2.12-.57-.33-1.62-.5-3.14-.49-.1,0-.48.01-1.14.04-.66.03-1.16.04-1.5.04-.55.29-1.01.69-1.4,1.17-.39.49-.58.96-.58,1.43ZM544.26,128.79c0-2.3-.89-3.45-2.67-3.44-.84,0-1.49.29-1.93.86s-.67,1.36-.67,2.35c0,1.14.21,2,.65,2.57s1.16.86,2.18.86c.88,0,1.51-.28,1.88-.83s.56-1.34.56-2.36Z" style="fill:#231815;"/><path d="M179.27,6.94c-24.09,75.55-32.82,85.6-43.66,84.33C113.09,88.63,105.81,1.25,86.61,1.26c-18.17.01-26.73,85.78-45.32,90.55C26.49,95.61,11.31,43.89.2,1.26" style="fill:none; stroke:url(#_未命名漸層_4); stroke-linecap:round; stroke-miterlimit:10; stroke-width:.4px;"/><path d="M180.68,6.42c-23.62,75.67-32.02,86.01-42.74,84.85C115.42,88.86,108.5,1.25,89.3,1.26c-18.17.01-26.73,85.78-45.32,90.55C29.18,95.61,13.91,43.89,2.8,1.26" style="fill:none; stroke:url(#_未命名漸層_68); stroke-linecap:round; stroke-miterlimit:10; stroke-width:.45px;"/><path d="M182.1,5.91c-23.16,75.78-31.22,86.42-41.81,85.37C117.75,89.1,111.19,1.25,91.99,1.26c-18.17.01-26.73,85.78-45.32,90.55C31.87,95.61,16.5,43.89,5.39,1.26" style="fill:none; stroke:url(#_未命名漸層_67); stroke-linecap:round; stroke-miterlimit:10; stroke-width:.51px;"/><path d="M183.52,5.39c-22.69,75.9-30.42,86.82-40.89,85.89C120.08,89.33,113.88,1.25,94.67,1.26c-18.17.01-26.73,85.78-45.32,90.55C34.56,95.61,19.1,43.89,7.99,1.26" style="fill:none; stroke:url(#_未命名漸層_66); stroke-linecap:round; stroke-miterlimit:10; stroke-width:.56px;"/><path d="M184.94,4.87c-22.23,76.02-29.62,87.23-39.96,86.41C122.41,89.57,116.56,1.25,97.36,1.26c-18.17.01-26.73,85.78-45.32,90.55C37.25,95.61,21.69,43.89,10.58,1.26" style="fill:none; stroke:url(#_未命名漸層_65); stroke-linecap:round; stroke-miterlimit:10; stroke-width:.62px;"/><path d="M186.36,4.36c-21.76,76.13-28.82,87.64-39.03,86.93C124.75,89.8,119.25,1.25,100.05,1.26c-18.17.01-26.73,85.78-45.32,90.55C39.93,95.61,24.29,43.89,13.18,1.26" style="fill:none; stroke:url(#_未命名漸層_64); stroke-linecap:round; stroke-miterlimit:10; stroke-width:.67px;"/><path d="M187.77,3.84c-21.29,76.25-28.02,88.03-38.11,87.45C127.08,89.99,121.94,1.25,102.74,1.26c-18.17.01-26.73,85.78-45.32,90.55C42.62,95.61,26.88,43.89,15.77,1.26" style="fill:none; stroke:url(#_未命名漸層_63); stroke-linecap:round; stroke-miterlimit:10; stroke-width:.73px;"/><path d="M189.19,3.32c-20.83,76.37-27.22,88.46-37.18,87.97-22.6-1.02-27.38-90.05-46.58-90.04-18.17.01-26.73,85.78-45.32,90.55-14.8,3.8-30.63-47.92-41.74-90.55" style="fill:none; stroke:url(#_未命名漸層_62); stroke-linecap:round; stroke-miterlimit:10; stroke-width:.78px;"/><path d="M190.61,2.81c-20.36,76.48-26.43,88.86-36.26,88.49-22.61-.79-27.04-90.05-46.24-90.04-18.17.01-26.73,85.78-45.32,90.55-14.8,3.8-30.72-47.92-41.83-90.55" style="fill:none; stroke:url(#_未命名漸層_61); stroke-linecap:round; stroke-miterlimit:10; stroke-width:.84px;"/><path d="M192.03,2.29c-19.9,76.6-25.63,89.27-35.33,89.01-22.62-.55-26.69-90.05-45.89-90.04-18.17.01-26.73,85.78-45.32,90.55-14.8,3.8-30.81-47.92-41.92-90.55" style="fill:none; stroke:url(#_未命名漸層_60); stroke-linecap:round; stroke-miterlimit:10; stroke-width:.89px;"/><path d="M193.44,1.77c-19.43,76.72-24.83,89.68-34.41,89.53-22.63-.32-26.35-90.06-45.55-90.05-18.17.01-26.73,85.78-45.32,90.55-14.8,3.8-30.9-47.92-42.01-90.55" style="fill:none; stroke:url(#_未命名漸層_59); stroke-linecap:round; stroke-miterlimit:10; stroke-width:.95px;"/><path d="M194.86,1.26c-18.97,76.84-24.03,90.09-33.48,90.05-22.64-.09-26-90.06-45.2-90.05-18.17.01-26.73,85.78-45.32,90.55-14.8,3.8-30.99-47.92-42.11-90.55" style="fill:none; stroke:url(#_未命名漸層_6); stroke-linecap:round; stroke-miterlimit:10;"/><path d="M254.48.1c.75,0,1.46.07,2.15.23v44.56c-.02,8.94-.02,17.91-.04,26.86-.02,5.67-.04,11.34-.08,17.01-.04,2.63-.25,2.9-2.58,2.93-4.25.02-8.5-.05-12.75-.02-1.19.02-1.62-.37-1.62-1.84.06-14.61.04-29.22.04-43.84h-.04c0-14.47.04-28.95-.02-43.42-.02-1.88.44-2.6,2.21-2.56,4.25.14,8.5.09,12.75.09Z" style="fill:url(#_未命名漸層_6-2);"/><path d="M321.02,1.85c-.26-.7-.8-.97-1.67-1h-.35c-1.06.02-2.56.28-4.5.44-2.04.14-4.08-.02-6.1-.33-.06,0-.15-.02-.21-.02-2.71-.37-3.35.19-3.35,2.44.02,17.63-.04,35.24-.1,52.85,0,1.25.02,2.53-.1,3.79-.15,1.56-1.25,2.21-2.46,1.42-1.12-.74-2.19-1.77-3-2.93-9.5-13.92-19-27.85-28.45-41.82v30.76c4.79,6.81,9.58,13.61,14.33,20.42,4.71,6.74,9.35,13.52,14.02,20.3,1.87,2.74,4.27,4.16,7.39,4.11,1.02-.02,2.06-.02,3.08-.02h.29c2.94,0,5.89.02,8.83,0,2.35-.02,2.52-.19,2.52-2.9.02-28.76,0-57.52.04-86.26,0-.4-.04-.71-.11-.99l-.1-.26Z" style="fill:url(#_未命名漸層_5);"/><path d="M226.33,92.25c-2.27,0-4.55-.04-6.82.01-2.18.05-3.67-1.03-4.52-3.21-1.22-3.12-2.4-6.25-3.57-9.39-1.15-3.07-1.39-3.29-4.39-3.26-5.86.05-11.72.15-17.58.19-2.17.01-2.41-.53-1.51-2.73,1.14-2.78,2.25-5.59,3.25-8.44,1.5-4.24,2-4.68,6.05-4.69,1.61,0,3.23,0,4.84.03,1.36.02,1.88-.64,1.45-2.12-.17-.57-.29-1.16-.5-1.71-3.52-9.27-7.04-18.54-10.57-27.81-.14-.37-.24-.77-.45-1.08-.44-.65-.94-1.25-1.41-1.88-.42.68-1.02,1.3-1.25,2.06-2.13,7.15-4.12,14.35-6.31,21.48-3.84,12.49-4.98,17.82-9.7,30.13-1.36,4.31-7.28,12.33-11.04,12.47-3.35.01-19.32-.31-22.67-.34-2.02-.02,5.67-3.26,7.16-5.23,4.04-5.25,6.5-8.99,8.78-14.36,9.15-19.13,15.28-40.77,21.76-61.19.42-1.31.95-2.6,1.57-3.81,1.99-3.91,4.97-6.24,9.02-6.72,1.07-.13,2.14-.21,3.22-.26,5.77-.29,9.81,2.29,12.07,8.47,4.38,11.98,8.9,23.89,13.46,35.78,5.01,13.06,10.1,26.08,15.2,39.09.81,2.07,1.91,4,2.87,5.99.86,1.78.55,2.47-1.25,2.52-2.39.07-4.78.02-7.18.02,0,0,0,.01,0,.02Z" style="fill:url(#_未命名漸層_3);"/><g id="xU2LNN"><path d="M442.18,58.33c-5.04-2.64-10.33-4.83-15.49-7.28-3.01-1.41-5.94-2.98-8.88-4.51-11.79-6.15-15.84-23.3-7.61-34.98,4.42-6.29,10.22-9.8,18.63-11.24-22.06-.04-48.15-.08-76.06-.09-.02.07-.03.15-.05.22,13.15.45,24.78,5.08,34.31,14.25,15.31,14.73,17.76,37.82,6.17,55.62-8.78,13.49-21.5,20.16-37.15,21.04l.03.07h69.88c-7.03-1.39-13.73-4.79-20.07-9.85-1.36-1.09-1.71-2.43-1.13-4.07,1.32-3.84,2.82-7.49,7.26-8.79,1.64-.49,2.82-.28,4.14.9,5.62,5.06,12.21,7.72,19.84,7.24,4.69-.3,8.46-2.27,10.27-6.91,1.78-4.55.25-9.39-4.09-11.63Z" style="fill:url(#_未命名漸層_9);"/><rect x="528.96" y=".57" width="11.03" height=".04" style="fill:url(#_未命名漸層_9-2);"/><path d="M515.6,23.21v11.38h-11.37v22.73h-11.38V23.21h-11.37v-11.37h-11.37v22.74h11.37v22.73h-11.37v11.37h11.37v11.38h-11.37v11.37h-29.55c2.38-.43,4.81-1.13,7.28-2.05,9.31-3.49,14.65-11,15.72-20.88,1.04-9.76-2.78-17.75-10.96-23.23-3.5-2.35-7.51-3.93-11.36-5.73-4.51-2.11-9.14-3.98-13.64-6.11-2.61-1.23-4.51-3.22-5.22-6.15-1.42-5.76,1.84-10.73,8.2-12.17,7.45-1.71,14.05.26,19.88,5.04,3.35,2.78,5.99,2.56,8.65-.85,1.48-1.88,2.75-3.91,4-5.94,1.51-2.39,1.39-2.59-.73-4.42-5.29-4.53-11.19-7.28-16.23-8.58,7,.02,13.44.06,19.21.08,1.63.01,3.22.02,4.74.03h22.73v11.37h11.38v11.37h11.37Z" style="fill:url(#_未命名漸層_9-3);"/><rect x="481.49" y="57.33" width="11.37" height="11.37" style="fill:url(#_未命名漸層_9-4);"/><rect x="481.49" y="80.07" width="22.74" height="11.37" style="fill:url(#_未命名漸層_9-5);"/><rect x="504.23" y=".61" width="11.37" height="11.37" style="fill:url(#_未命名漸層_9-6);"/><rect x="515.6" y="45.96" width="11.37" height="11.37" style="fill:url(#_未命名漸層_9-7);"/><rect x="504.23" y="57.33" width="11.37" height="11.37" style="fill:url(#_未命名漸層_9-8);"/><rect x="526.96" y="68.69" width="22.74" height="11.38" style="fill:url(#_未命名漸層_9-9);"/><rect x="515.6" y="80.07" width="11.37" height="11.37" style="fill:url(#_未命名漸層_9-10);"/><rect x="528.96" y=".61" width="11.03" height="22.51" style="fill:url(#_未命名漸層_9-11);"/><rect x="528.79" y=".61" width=".17" height="11.37" style="fill:url(#_未命名漸層_9-12);"/><rect x="539.99" y=".61" width=".17" height="11.37" style="fill:url(#_未命名漸層_9-13);"/><polygon points="540.16 11.98 540.16 23.35 528.79 23.35 528.79 11.98 528.96 11.98 528.96 23.13 539.99 23.13 539.99 11.98 540.16 11.98" style="fill:url(#_未命名漸層_9-14);"/><rect x="538.33" y="34.59" width="11.37" height="11.37" style="fill:url(#_未命名漸層_9-15);"/></g><path d="M383.02,48.62c-1.02,14.2-12.74,25.99-27.05,27.1-3.63.28-7.31.28-10.94.28-4.21-.02-5.87-1.62-5.9-5.78-.07-7.95-.02-15.93-.02-23.88h.05c0-7.44,0-14.89.02-22.31,0-.86,0-1.73.07-2.59.28-3.42,1.29-4.6,4.72-4.58,5.48.02,11.12-.37,16.44.72,14.96,3.07,23.72,15.51,22.61,31.05Z" style="fill:url(#_未命名漸層_9-16);"/><path d="M383.02,48.62c-1.02,14.2-12.74,25.99-27.05,27.1-3.63.28-7.31.28-10.94.28-4.21-.02-5.87-1.62-5.9-5.78-.07-7.95-.02-15.93-.02-23.88h.05c0-7.44,0-14.89.02-22.31,0-.86,0-1.73.07-2.59.28-3.42,1.29-4.6,4.72-4.58,5.48.02,11.12-.37,16.44.72,14.96,3.07,23.72,15.51,22.61,31.05Z" style="fill:url(#_未命名漸層_9-17);"/></g></svg>